<svg width="20" height="16" viewBox="0 0 20 16" fill="none" xmlns="http://www.w3.org/2000/svg">
<path d="M2.2 16H17.8C19.2249 14.2525 20.001 12.0789 20 9.83857C20 4.41506 15.525 0 10 0C4.47499 0 0 4.41506 0 9.83857C0 12.1753 0.825 14.3029 2.2 16ZM8.75001 2.45965C8.75001 1.78324 9.31249 1.22982 10 1.22982C10.6875 1.22982 11.25 1.78324 11.25 2.45965C11.25 3.14834 10.6875 3.68947 10 3.68947C9.31249 3.68947 8.75001 3.14834 8.75001 2.45965ZM2.5 4.91929C2.5 4.24289 3.06249 3.68947 3.74999 3.68947C4.43747 3.68947 4.99996 4.24289 4.99996 4.91929C4.99996 5.60799 4.43747 6.14912 3.74999 6.14912C3.06249 6.14912 2.5 5.60799 2.5 4.91929ZM8.15001 9.10065C9.19995 8.07991 16.2875 4.79631 16.2875 4.79631C16.2875 4.79631 12.9625 11.7817 11.925 12.8025C10.875 13.8355 9.19995 13.8355 8.15001 12.8025C7.65153 12.3113 7.3716 11.6456 7.3716 10.9516C7.3716 10.2575 7.65153 9.59184 8.15001 9.10065ZM1.25 11.0684C1.25 10.392 1.8125 9.83857 2.5 9.83857C3.18749 9.83857 3.74999 10.392 3.74999 11.0684C3.74999 11.7571 3.18749 12.2982 2.5 12.2982C1.8125 12.2982 1.25 11.7571 1.25 11.0684ZM8.75001 11.0684C8.75001 10.392 9.31249 9.83857 10 9.83857C10.6875 9.83857 11.25 10.392 11.25 11.0684C11.25 11.7571 10.6875 12.2982 10 12.2982C9.31249 12.2982 8.75001 11.7571 8.75001 11.0684ZM16.2499 11.0684C16.2499 10.392 16.8125 9.83857 17.4999 9.83857C18.1874 9.83857 18.75 10.392 18.75 11.0684C18.75 11.7571 18.1874 12.2982 17.4999 12.2982C16.8125 12.2982 16.2499 11.7571 16.2499 11.0684Z" fill="black"/>
</svg>
