<svg width="33" height="24" viewBox="0 0 33 24" fill="none" xmlns="http://www.w3.org/2000/svg">
<path d="M7.59197 21.8507H25.9714C27.6502 19.7919 28.5646 17.231 28.5634 14.5915C28.5634 8.20169 23.2911 3 16.7817 3C10.2723 3 5 8.20169 5 14.5915C5 17.3445 5.97199 19.8512 7.59197 21.8507ZM15.309 5.89788C15.309 5.10096 15.9717 4.44894 16.7817 4.44894C17.5917 4.44894 18.2544 5.10096 18.2544 5.89788C18.2544 6.70928 17.5917 7.34682 16.7817 7.34682C15.9717 7.34682 15.309 6.70928 15.309 5.89788ZM7.94542 8.79575C7.94542 7.99884 8.60814 7.34682 9.41813 7.34682C10.2281 7.34682 10.8908 7.99884 10.8908 8.79575C10.8908 9.60716 10.2281 10.2447 9.41813 10.2447C8.60814 10.2447 7.94542 9.60716 7.94542 8.79575ZM14.6021 13.7221C15.8391 12.5195 24.1894 8.65086 24.1894 8.65086C24.1894 8.65086 20.272 16.8808 19.0497 18.0835C17.8126 19.3006 15.8391 19.3006 14.6021 18.0835C14.0148 17.5048 13.685 16.7205 13.685 15.9028C13.685 15.0851 14.0148 14.3008 14.6021 13.7221ZM6.47271 16.0404C6.47271 15.2435 7.13543 14.5915 7.94542 14.5915C8.75541 14.5915 9.41813 15.2435 9.41813 16.0404C9.41813 16.8519 8.75541 17.4894 7.94542 17.4894C7.13543 17.4894 6.47271 16.8519 6.47271 16.0404ZM15.309 16.0404C15.309 15.2435 15.9717 14.5915 16.7817 14.5915C17.5917 14.5915 18.2544 15.2435 18.2544 16.0404C18.2544 16.8519 17.5917 17.4894 16.7817 17.4894C15.9717 17.4894 15.309 16.8519 15.309 16.0404ZM24.1452 16.0404C24.1452 15.2435 24.808 14.5915 25.6179 14.5915C26.4279 14.5915 27.0907 15.2435 27.0907 16.0404C27.0907 16.8519 26.4279 17.4894 25.6179 17.4894C24.808 17.4894 24.1452 16.8519 24.1452 16.0404Z" fill="black"/>
</svg>
