<svg width="20" height="11" viewBox="0 0 20 11" fill="none" xmlns="http://www.w3.org/2000/svg">
<path d="M11.2001 0.392788L8.24986 4.20672L10.5 7.11811C10.8301 7.54515 10.7401 8.15648 10.3 8.47678C10.1953 8.55398 10.0757 8.61027 9.94841 8.64232C9.82105 8.67437 9.68839 8.68155 9.55816 8.66351C9.42794 8.64546 9.30273 8.60247 9.18972 8.53712C9.0767 8.47176 8.97818 8.38522 8.89994 8.28266C7.84986 6.92399 6.5897 5.30334 5.79965 4.26497C5.39963 3.7506 4.59957 3.7506 4.19953 4.26497L0.199216 9.43753C-0.290826 10.0877 0.179213 11 0.99928 11H19.0007C19.8208 11 20.2908 10.0877 19.8007 9.44721L12.8002 0.392788C12.7079 0.271016 12.5874 0.172022 12.4484 0.103789C12.3095 0.0355554 12.1559 0 12.0002 0C11.8444 0 11.6908 0.0355554 11.5519 0.103789C11.4129 0.172022 11.2924 0.271016 11.2001 0.392788Z" fill="black"/>
</svg>
