<svg width="33" height="24" viewBox="0 0 33 24" fill="none" xmlns="http://www.w3.org/2000/svg">
<path d="M18.0746 4.56374L13.8404 10.0376L17.0699 14.2161C17.5436 14.829 17.4144 15.7064 16.7828 16.1661C16.6325 16.2769 16.4609 16.3577 16.2782 16.4037C16.0954 16.4497 15.905 16.46 15.7181 16.4341C15.5312 16.4082 15.3515 16.3465 15.1893 16.2527C15.0271 16.1589 14.8857 16.0347 14.7734 15.8875C13.2663 13.9375 11.4577 11.6115 10.3238 10.1212C9.74968 9.38296 8.60141 9.38296 8.02727 10.1212L2.28592 17.545C1.5826 18.4782 2.25721 19.7875 3.43419 19.7875H29.2703C30.4473 19.7875 31.1219 18.4782 30.4185 17.5589L20.3712 4.56374C20.2387 4.38897 20.0658 4.24689 19.8663 4.14896C19.6669 4.05103 19.4465 4 19.2229 4C18.9994 4 18.7789 4.05103 18.5795 4.14896C18.38 4.24689 18.2071 4.38897 18.0746 4.56374Z" fill="black"/>
</svg>
