<svg width="20" height="12" viewBox="0 0 20 12" fill="none" xmlns="http://www.w3.org/2000/svg">
<path d="M6.15442 12L5.36778 11.2093L7.74003 8.80936C5.58297 8.52157 3.7537 7.98023 2.25222 7.18547C0.750743 6.39072 0 5.48665 0 4.47345C0 3.27009 0.969629 2.22368 2.90889 1.33421C4.84815 0.444738 7.21186 0 10 0C12.7881 0 15.1519 0.444738 17.0911 1.33421C19.0304 2.22368 20 3.27009 20 4.47345C20 5.28535 19.4948 6.05483 18.4844 6.78171C17.4741 7.50866 16.1274 8.06712 14.4444 8.45703V7.32529C15.8703 6.95251 16.9678 6.49134 17.7367 5.94184C18.5056 5.39235 18.8896 4.90291 18.8889 4.47345C18.8889 3.83375 18.0974 3.11464 16.5144 2.31613C14.9315 1.51762 12.76 1.11836 10 1.11836C7.24 1.11836 5.06852 1.51762 3.48556 2.31613C1.90259 3.11464 1.11111 3.83375 1.11111 4.47345C1.11111 5.00727 1.72593 5.60412 2.95556 6.26394C4.18518 6.92452 5.74146 7.3916 7.62448 7.66526L5.36667 5.39385L6.15219 4.60318L9.82778 8.30158L6.15442 12Z" fill="black"/>
</svg>
