<svg width="33" height="24" viewBox="0 0 33 24" fill="none" xmlns="http://www.w3.org/2000/svg">
<path d="M11.1178 20.6628L9.95239 19.499L13.4669 15.9665C10.2712 15.5429 7.56113 14.7461 5.33668 13.5763C3.11223 12.4065 2 11.0758 2 9.58447C2 7.81325 3.43651 6.27303 6.30954 4.96382C9.18256 3.65461 12.6844 3 16.8151 3C20.9457 3 24.4476 3.65461 27.3206 4.96382C30.1936 6.27303 31.6301 7.81325 31.6301 9.58447C31.6301 10.7795 30.8817 11.9121 29.3848 12.982C27.8879 14.052 25.8928 14.874 23.3995 15.4479V13.7821C25.512 13.2334 27.1379 12.5546 28.277 11.7458C29.4161 10.937 29.9851 10.2166 29.984 9.58447C29.984 8.64289 28.8114 7.58444 26.4662 6.40911C24.1211 5.23378 20.904 4.64612 16.8151 4.64612C12.7261 4.64612 9.50904 5.23378 7.16387 6.40911C4.8187 7.58444 3.64612 8.64289 3.64612 9.58447C3.64612 10.3702 4.55697 11.2487 6.37867 12.2199C8.20037 13.1922 10.506 13.8797 13.2957 14.2825L9.95075 10.9392L11.1145 9.77542L16.5599 15.2191L11.1178 20.6628Z" fill="black"/>
</svg>
