<svg width="22" height="23" viewBox="0 0 22 23" fill="none" xmlns="http://www.w3.org/2000/svg">
<path d="M10.9077 0C12.0477 0 12.8829 1.82932 13.9111 2.16166C14.9773 2.50632 16.7309 1.52727 17.6181 2.17018C18.5138 2.81878 18.1171 4.78539 18.7694 5.67732C19.4152 6.56073 21.4206 6.78987 21.7662 7.85034C22.1005 8.87389 20.6234 10.2269 20.6234 11.3622C20.6234 12.4965 22.1005 13.8505 21.7662 14.8741C21.4206 15.9346 19.4152 16.1637 18.7694 17.0471C18.1161 17.939 18.5138 19.9066 17.6171 20.5542C16.7299 21.1981 14.9763 20.2181 13.9111 20.5637C12.8829 20.8942 12.0477 22.7244 10.9077 22.7244C9.76772 22.7244 8.93259 20.8951 7.90431 20.5628C6.83816 20.2181 5.08459 21.1972 4.19739 20.5542C3.30167 19.9057 3.6984 17.939 3.04602 17.0471C2.40026 16.1637 0.394833 15.9346 0.0492321 14.8741C-0.285006 13.8505 1.19208 12.4975 1.19208 11.3622C1.19208 10.2279 -0.285006 8.87389 0.0492321 7.85034C0.394833 6.78987 2.40026 6.56073 3.04696 5.67732C3.6984 4.78539 3.30261 2.81783 4.19834 2.17018C5.08554 1.52632 6.8391 2.50632 7.90431 2.16071C8.93259 1.83026 9.76772 0 10.9077 0ZM10.7193 6.00304L7.64487 11.8442C7.49527 12.1282 7.70642 12.4625 8.01225 12.4634H9.62853C9.85009 12.4634 10.0451 12.6461 10.0451 12.8848V16.3938C10.0451 16.8284 10.6161 16.9789 10.8263 16.6002L14.0361 10.8149C14.0714 10.751 14.0896 10.679 14.0888 10.606C14.0881 10.533 14.0684 10.4614 14.0319 10.3982C13.9953 10.335 13.9429 10.2824 13.88 10.2454C13.817 10.2084 13.7455 10.1884 13.6725 10.1872L11.9209 10.1853C11.6908 10.1853 11.5042 9.99591 11.5042 9.76393V6.20093C11.5042 5.76159 10.9238 5.61578 10.7193 6.00304Z" fill="black"/>
</svg>
