<svg width="23" height="23" viewBox="0 0 23 23" fill="none" xmlns="http://www.w3.org/2000/svg">
<path d="M11.3622 22.7244C9.79844 22.7244 8.32556 22.4256 6.94358 21.8281C5.5616 21.2297 4.35805 20.4175 3.33292 19.3915C2.3078 18.3655 1.49561 17.162 0.896359 15.7809C0.297108 14.3997 -0.00167622 12.9268 7.07265e-06 11.3622C7.07265e-06 9.79339 0.298791 8.31924 0.896359 6.93979C1.49477 5.55949 2.30696 4.3572 3.33292 3.33292C4.35889 2.30863 5.56244 1.49645 6.94358 0.896352C8.32556 0.298784 9.79844 0 11.3622 0C12.931 0 14.4052 0.298784 15.7846 0.896352C17.1649 1.49476 18.3677 2.30695 19.3928 3.33292C20.4179 4.35888 21.2297 5.56117 21.8281 6.93979C22.4256 8.32009 22.7244 9.79423 22.7244 11.3622C22.7244 12.926 22.4256 14.3989 21.8281 15.7809C21.2297 17.1628 20.4175 18.3664 19.3915 19.3915C18.3656 20.4166 17.1633 21.2288 15.7846 21.8281C14.406 22.4273 12.9319 22.7261 11.3622 22.7244ZM5.04988 9.85735C5.32678 9.85735 5.56581 9.75635 5.76696 9.55436C5.96811 9.35236 6.06911 9.11334 6.06995 8.83728C6.0708 8.56122 5.9698 8.32219 5.76696 8.1202C5.56412 7.9182 5.3251 7.8172 5.04988 7.8172C4.77466 7.8172 4.53563 7.9182 4.3328 8.1202C4.12996 8.32219 4.02896 8.56122 4.02981 8.83728C4.03065 9.11334 4.13164 9.35236 4.3328 9.55436C4.53395 9.75635 4.77298 9.85735 5.04988 9.85735ZM8.83728 6.06995C9.11419 6.06995 9.35321 5.96895 9.55437 5.76695C9.75552 5.56496 9.85652 5.32593 9.85736 5.04987C9.8582 4.77381 9.7572 4.53479 9.55437 4.33279C9.35153 4.1308 9.1125 4.0298 8.83728 4.0298C8.56207 4.0298 8.32304 4.1308 8.1202 4.33279C7.91737 4.53479 7.81637 4.77381 7.81721 5.04987C7.81805 5.32593 7.91905 5.56496 8.1202 5.76695C8.32136 5.96895 8.56038 6.06995 8.83728 6.06995ZM17.6746 9.85735C17.9515 9.85735 18.1905 9.75635 18.3916 9.55436C18.5928 9.35236 18.6938 9.11334 18.6946 8.83728C18.6955 8.56122 18.5945 8.32219 18.3916 8.1202C18.1888 7.9182 17.9498 7.8172 17.6746 7.8172C17.3993 7.8172 17.1603 7.9182 16.9575 8.1202C16.7546 8.32219 16.6536 8.56122 16.6545 8.83728C16.6553 9.11334 16.7563 9.35236 16.9575 9.55436C17.1586 9.75635 17.3977 9.85735 17.6746 9.85735ZM11.3622 13.2559C11.895 13.2559 12.3436 13.0733 12.708 12.708C13.0733 12.3436 13.2559 11.895 13.2559 11.3622C13.2559 11.0887 13.2016 10.8324 13.0931 10.5934C12.9845 10.3552 12.838 10.1389 12.6537 9.94446L14.863 4.33153L13.6864 3.82402L11.4354 9.46851C10.901 9.4441 10.4398 9.61622 10.0518 9.98486C9.66378 10.3535 9.46936 10.8126 9.46852 11.3622C9.46852 11.895 9.65116 12.3436 10.0164 12.708C10.3809 13.0733 10.8295 13.2559 11.3622 13.2559ZM17.9473 18.9951C16.9752 18.3496 15.926 17.8631 14.7999 17.5357C13.6738 17.2074 12.5279 17.0433 11.3622 17.0433C10.1965 17.0433 9.05064 17.2074 7.92452 17.5357C6.7984 17.8639 5.74971 18.3504 4.77845 18.9951L5.91846 19.8106C6.75169 19.3259 7.62742 18.9539 8.54565 18.6946C9.46389 18.4354 10.4027 18.3058 11.3622 18.3058C12.3217 18.3058 13.2601 18.4354 14.1775 18.6946C15.0949 18.9539 15.9711 19.3259 16.806 19.8106L17.9473 18.9951Z" fill="black"/>
</svg>
