<svg width="24" height="18" viewBox="0 0 24 18" fill="none" xmlns="http://www.w3.org/2000/svg">
<path d="M17.7535 0H5.91782C5.13307 0 4.38046 0.299272 3.82556 0.831979C3.27065 1.36469 2.95891 2.08719 2.95891 2.84055V4.26083C3.87689 4.26066 4.77233 4.53375 5.5219 5.04247C6.27148 5.5512 6.8383 6.27053 7.14429 7.10139H16.527C16.833 6.27053 17.3998 5.5512 18.1494 5.04247C18.899 4.53375 19.7944 4.26066 20.7124 4.26083V2.84055C20.7124 2.08719 20.4006 1.36469 19.8457 0.831979C19.2908 0.299272 18.5382 0 17.7535 0ZM20.7124 5.68111C20.055 5.68104 19.4164 5.8911 18.8972 6.27816C18.378 6.66521 18.0079 7.20721 17.8452 7.81863C17.7446 8.19926 17.4221 8.52166 17.0137 8.52166H6.65755C6.24922 8.52166 5.9267 8.19926 5.8261 7.81863C5.64795 7.14786 5.22079 6.56263 4.62488 6.17289C4.02897 5.78314 3.30532 5.61571 2.58988 5.70204C1.87445 5.78837 1.21647 6.12253 0.739577 6.64173C0.262679 7.16093 -0.000316735 7.82944 2.86275e-07 8.52166V11.3622C2.86275e-07 12.1156 0.311742 12.8381 0.866645 13.3708C1.42155 13.9035 2.17416 14.2028 2.95891 14.2028V16.3332C2.95891 16.5215 3.03685 16.7022 3.17557 16.8353C3.3143 16.9685 3.50245 17.0433 3.69864 17.0433C3.89483 17.0433 4.08298 16.9685 4.2217 16.8353C4.36043 16.7022 4.43837 16.5215 4.43837 16.3332V14.2028H19.2329V16.3332C19.2329 16.5215 19.3109 16.7022 19.4496 16.8353C19.5883 16.9685 19.7765 17.0433 19.9726 17.0433C20.1688 17.0433 20.357 16.9685 20.4957 16.8353C20.6344 16.7022 20.7124 16.5215 20.7124 16.3332V14.2028C21.4971 14.2028 22.2497 13.9035 22.8046 13.3708C23.3595 12.8381 23.6713 12.1156 23.6713 11.3622V8.52166C23.6713 7.7683 23.3595 7.0458 22.8046 6.51309C22.2497 5.98038 21.4971 5.68111 20.7124 5.68111Z" fill="black"/>
</svg>
