<svg width="19" height="20" viewBox="0 0 19 20" fill="none" xmlns="http://www.w3.org/2000/svg">
<path d="M8.07783 15.3168L13.5222 10.2216C13.6998 10.0559 13.7491 9.85909 13.6702 9.63125C13.5913 9.40342 13.4335 9.26879 13.1967 9.22736L8.93591 8.7924L11.4806 5.09524C11.5398 4.99168 11.5745 4.89309 11.5847 4.79947C11.595 4.70585 11.5603 4.61803 11.4806 4.53601C11.4017 4.43245 11.303 4.38605 11.1847 4.39682C11.0663 4.40759 10.9578 4.45399 10.8592 4.53601L5.4444 9.63125C5.26686 9.79695 5.21755 9.99372 5.29645 10.2216C5.37536 10.4494 5.53316 10.584 5.76988 10.6254L10.0307 11.0604L7.45646 14.7576C7.39728 14.8611 7.36769 14.9593 7.36769 15.0521C7.36769 15.1449 7.40714 15.2331 7.48604 15.3168C7.56495 15.4005 7.65884 15.4419 7.76773 15.4411C7.87662 15.4402 7.97998 15.3988 8.07783 15.3168ZM9.46851 19.8839C8.36385 19.8839 7.3235 19.7024 6.34746 19.3396C5.37141 18.9767 4.47861 18.4643 3.66905 17.8023L2.04165 19.5111C1.92329 19.6353 1.79034 19.7285 1.64279 19.7907C1.49524 19.8528 1.34216 19.8839 1.18356 19.8839C0.848221 19.8839 0.567322 19.7646 0.340867 19.526C0.114411 19.2874 0.000789043 18.9924 0 18.6411C0 18.4754 0.0295889 18.3151 0.0887671 18.1602C0.147945 18.0053 0.236713 17.8653 0.35507 17.7401L1.98247 16.0314C1.35124 15.1822 0.863213 14.2451 0.518401 13.2203C0.17359 12.1954 0.000789043 11.1027 0 9.94194C0 7.16648 0.917262 4.81563 2.75179 2.88938C4.58631 0.963125 6.82522 0 9.46851 0H18.937V9.94194C18.937 12.7174 18.0198 15.0683 16.1852 16.9945C14.3507 18.9208 12.1118 19.8839 9.46851 19.8839Z" fill="black"/>
</svg>
