<svg width="19" height="12" viewBox="0 0 19 12" fill="none" xmlns="http://www.w3.org/2000/svg">
<g opacity="0.8">
<path d="M8.78994 6.62796H4.73742C4.57218 6.62696 4.41008 6.58274 4.26722 6.49969C4.12437 6.41663 4.00574 6.29764 3.92312 6.15453C3.84002 6.01059 3.79627 5.84731 3.79627 5.68111C3.79627 5.5149 3.84002 5.35162 3.92312 5.20768L6.89624 0H2.05783C1.48082 0.0341972 0.940816 0.295403 0.555814 0.726534C0.170812 1.15767 -0.0278804 1.72367 0.00315883 2.30085V9.06137C-0.0278804 9.63855 0.170812 10.2045 0.555814 10.6357C0.940816 11.0668 1.48082 11.328 2.05783 11.3622H6.08194L8.78994 6.62796Z" fill="black"/>
<path d="M13.0983 6.10352e-05H9.07421L6.36621 4.73432H10.4187C10.584 4.73531 10.7461 4.77954 10.8889 4.86259C11.0318 4.94565 11.1504 5.06464 11.233 5.20774C11.3161 5.35168 11.3599 5.51496 11.3599 5.68117C11.3599 5.84738 11.3161 6.01065 11.233 6.15459L8.25991 11.3623H13.0983C13.6753 11.3281 14.2153 11.0669 14.6003 10.6357C14.9853 10.2046 15.184 9.63861 15.153 9.06143V2.30091C15.184 1.72373 14.9853 1.15773 14.6003 0.726596C14.2153 0.295464 13.6753 0.0342583 13.0983 6.10352e-05ZM17.9935 2.84062C17.7424 2.84062 17.5016 2.94037 17.324 3.11794C17.1465 3.29551 17.0467 3.53635 17.0467 3.78747V7.57487C17.0467 7.82599 17.1465 8.06683 17.324 8.2444C17.5016 8.42197 17.7424 8.52172 17.9935 8.52172C18.2447 8.52172 18.4855 8.42197 18.6631 8.2444C18.8406 8.06683 18.9404 7.82599 18.9404 7.57487V3.78747C18.9404 3.53635 18.8406 3.29551 18.6631 3.11794C18.4855 2.94037 18.2447 2.84062 17.9935 2.84062Z" fill="black"/>
</g>
</svg>
