<svg width="18" height="18" viewBox="0 0 18 18" fill="none" xmlns="http://www.w3.org/2000/svg">
<path d="M8.99498 14.0817L4.21056 16.9563C4.06997 17.0253 3.93949 17.0533 3.81911 17.0402C3.69961 17.0262 3.58318 16.9851 3.46983 16.9169C3.35561 16.847 3.2695 16.7482 3.2115 16.6205C3.15351 16.4929 3.14824 16.3535 3.19569 16.2022L4.46889 10.8124L0.257817 7.17985C0.139195 7.08369 0.0609929 6.96872 0.0232097 6.83496C-0.0145736 6.7012 -0.00622603 6.57312 0.0482522 6.45072C0.10273 6.32833 0.175221 6.22779 0.265726 6.1491C0.357108 6.07304 0.480124 6.02146 0.634772 5.99436L6.19155 5.51177L8.35837 0.407842C8.41812 0.26359 8.50423 0.159552 8.6167 0.0957313C8.72918 0.0319104 8.85527 0 8.99498 0C9.13469 0 9.26122 0.0319104 9.37457 0.0957313C9.48792 0.159552 9.57359 0.26359 9.63158 0.407842L11.7984 5.51177L17.3539 5.99436C17.5094 6.02059 17.6328 6.0726 17.7242 6.15041C17.8156 6.22735 17.8885 6.32745 17.943 6.45072C17.9966 6.57312 18.0045 6.7012 17.9667 6.83496C17.929 6.96872 17.8508 7.08369 17.7321 7.17985L13.5211 10.8124L14.7943 16.2022C14.8435 16.3517 14.8386 16.4907 14.7798 16.6192C14.7209 16.7477 14.6343 16.8465 14.5201 16.9156C14.4076 16.9855 14.2912 17.0271 14.1708 17.0402C14.0513 17.0533 13.9213 17.0253 13.7807 16.9563L8.99498 14.0817Z" fill="black"/>
</svg>
