<svg width="81" height="81" viewBox="0 0 81 81" fill="none" xmlns="http://www.w3.org/2000/svg">
<rect width="81" height="81" rx="40.5" fill="#191917"/>
<path d="M40.4999 43.5527L29.8161 54.2364C29.4164 54.6361 28.9077 54.836 28.2899 54.836C27.6721 54.836 27.1634 54.6361 26.7637 54.2364C26.3639 53.8366 26.1641 53.3279 26.1641 52.7101C26.1641 52.0924 26.3639 51.5836 26.7637 51.1839L37.4474 40.5002L26.7637 29.8165C26.3639 29.4167 26.1641 28.908 26.1641 28.2902C26.1641 27.6724 26.3639 27.1637 26.7637 26.764C27.1634 26.3642 27.6721 26.1644 28.2899 26.1644C28.9077 26.1644 29.4164 26.3642 29.8161 26.764L40.4999 37.4477L51.1836 26.764C51.5833 26.3642 52.0921 26.1644 52.7098 26.1644C53.3276 26.1644 53.8363 26.3642 54.2361 26.764C54.6358 27.1637 54.8357 27.6724 54.8357 28.2902C54.8357 28.908 54.6358 29.4167 54.2361 29.8165L43.5524 40.5002L54.2361 51.1839C54.6358 51.5836 54.8357 52.0924 54.8357 52.7101C54.8357 53.3279 54.6358 53.8366 54.2361 54.2364C53.8363 54.6361 53.3276 54.836 52.7098 54.836C52.0921 54.836 51.5833 54.6361 51.1836 54.2364L40.4999 43.5527Z" fill="#D6FF41"/>
</svg>
