<svg width="980" height="334" viewBox="0 0 980 334" fill="none" xmlns="http://www.w3.org/2000/svg">
<path d="M627.362 7.1986C689.105 13.3464 746.684 23.5782 796.81 37.3072C846.94 51.0371 888.619 67.9913 919.48 87.1914C950.35 106.398 969.732 127.437 976.645 149.076C983.545 170.675 977.919 192.555 959.959 213.507C941.984 234.475 912.03 254.07 871.755 271.151C831.489 288.228 781.732 302.441 725.323 312.972C668.915 323.504 606.968 330.146 543.02 332.519C479.073 334.892 414.38 332.949 352.638 326.801C290.895 320.654 233.316 310.422 183.19 296.693C133.06 282.963 91.3807 266.009 60.5201 246.809C29.6496 227.602 10.2683 206.563 3.35526 184.924C-3.54533 163.324 2.08138 141.445 20.0414 120.493C38.0155 99.5254 67.9705 79.9296 108.245 62.8493C148.511 45.7721 198.268 31.5594 254.677 21.0277C311.085 10.4963 373.032 3.85389 436.98 1.48086C500.927 -0.892161 565.62 1.05084 627.362 7.1986L627.362 7.1986Z" stroke="white" stroke-opacity="0.52"/>
</svg>
