<svg width="40" height="23" viewBox="0 0 40 23" fill="none" xmlns="http://www.w3.org/2000/svg">
<path d="M33.4317 16.7854C32.3603 16.732 31.5821 16.653 30.5199 16.7297C30.0488 16.7645 29.4323 17.1339 29.1875 17.5382C28.4717 18.723 27.8805 19.9869 27.3009 21.2484C26.9153 22.0894 26.3703 22.4332 25.4189 22.4216C21.6527 22.3728 17.8842 22.3705 14.1179 22.4216C13.2012 22.4332 12.707 22.0963 12.3491 21.2948C11.8134 20.0984 11.2061 18.9368 10.6265 17.7612C10.2339 16.962 9.72591 16.6182 8.7168 16.7065C6.84639 16.8691 4.95288 16.8226 3.07553 16.7343C2.60908 16.7111 2.00639 16.2929 1.74777 15.8771C1.13815 14.9036 0.697098 13.821 0.191393 12.7825C-0.118034 12.146 -0.131889 11.6093 0.757137 11.5861C2.8654 11.5326 4.97597 11.4792 7.08192 11.5257C7.40289 11.5326 7.80699 12.0275 8.00789 12.3876C8.6406 13.526 9.25946 14.6806 9.76054 15.8794C10.13 16.7645 10.7027 17.1246 11.6079 17.127C14.9515 17.1316 18.2952 17.1525 21.6389 17.1618C23.7148 17.1665 25.7907 17.1386 27.8667 17.1618C28.8111 17.1711 29.4554 16.8551 29.8548 15.9305C30.3883 14.6945 30.984 13.4772 31.6652 12.3155C31.8938 11.9252 32.4503 11.5117 32.8752 11.4908C34.7133 11.4002 36.5583 11.4327 38.401 11.4606C39.6457 11.4792 39.8627 11.8346 39.3501 12.9475C38.8836 13.9627 38.4541 15.0105 37.8584 15.9468C37.5998 16.3533 36.9878 16.6832 36.496 16.7529C35.5908 16.8807 34.6556 16.7901 33.7342 16.7901C33.6742 16.7901 33.4502 16.7878 33.4317 16.7878V16.7854Z" fill="white"/>
<path d="M19.7338 6.88848C16.277 6.88848 12.8179 6.88848 9.36106 6.88616C7.9571 6.88616 7.79546 6.62131 8.42586 5.32263C9.11629 3.90081 9.84137 2.49526 10.518 1.06415C10.8689 0.320715 11.3331 -0.00686076 12.2083 0.000108925C17.3184 0.0442503 22.4286 0.0396038 27.5364 0.000108925C28.3262 -0.00686076 28.7418 0.320715 29.0536 0.961926C29.7971 2.48596 30.5684 3.99606 31.2934 5.52707C31.7645 6.51909 31.5428 6.87919 30.4506 6.88384C26.8783 6.9001 23.3038 6.89081 19.7315 6.88848H19.7338Z" fill="white"/>
</svg>
