<svg width="250" height="248" viewBox="0 0 250 248" fill="none" xmlns="http://www.w3.org/2000/svg">
<g clip-path="url(#clip0_24_857)">
<path d="M145.747 132.049C145.549 132.099 144.755 132.099 144.408 132.099H118.802V138.023H144.854C145.053 138.023 146.591 138.023 146.889 137.973C152.199 137.48 154.63 133.086 154.63 129.236C154.63 125.286 152.099 121.041 147.286 120.596C146.343 120.498 145.549 120.498 145.202 120.498H128.181C127.436 120.498 126.593 120.448 126.295 120.35C124.955 120.004 124.459 118.819 124.459 117.832C124.459 116.943 124.955 115.759 126.345 115.364C126.742 115.265 127.188 115.216 128.131 115.216H152.695V109.39H127.734C126.692 109.39 125.898 109.44 125.253 109.538C120.985 110.131 118.008 113.537 118.008 117.881C118.008 121.436 120.241 125.582 125.154 126.274C126.047 126.372 127.287 126.372 127.833 126.372H144.408C144.705 126.372 145.45 126.372 145.599 126.422C147.484 126.669 148.129 128.051 148.129 129.285C148.129 130.47 147.385 131.753 145.747 132.049Z" fill="white"/>
<path d="M97.2142 132.049C97.0158 132.099 96.2218 132.099 95.924 132.099H70.2686V138.023H96.321C96.5195 138.023 98.0578 138.023 98.3556 137.973C103.665 137.48 106.097 133.086 106.097 129.236C106.097 125.286 103.566 121.041 98.7526 120.596C97.8097 120.498 97.0158 120.498 96.6684 120.498H79.6475C78.9031 120.498 78.0595 120.448 77.7618 120.35C76.4219 120.004 75.9257 118.819 75.9257 117.832C75.9257 116.943 76.4219 115.759 77.8114 115.364C78.2084 115.265 78.655 115.216 79.5978 115.216H104.162V109.39H79.2009C78.1588 109.39 77.3648 109.44 76.7197 109.538C72.452 110.131 69.4746 113.537 69.4746 117.881C69.4746 121.436 71.7077 125.582 76.6204 126.274C77.5136 126.372 78.7542 126.372 79.3001 126.372H95.8744C96.1721 126.372 96.9165 126.372 97.0654 126.422C98.9511 126.669 99.5962 128.051 99.5962 129.285C99.5962 130.47 98.9015 131.753 97.2142 132.049Z" fill="white"/>
<path d="M56.9218 109.193H50.4707V138.171H56.9218V109.193Z" fill="white"/>
<path d="M36.2272 138.171V109.193H29.7762V130.816L8.28911 109.193H0.00195312V138.171H6.45303V116.45L28.089 138.171H36.2272Z" fill="white"/>
<path d="M243.704 109.193V130.816L222.217 109.193H213.93V138.171H220.381V116.45L241.967 138.171H250.105V109.193H243.704Z" fill="white"/>
<path d="M180.334 109.193L162.172 138.171H170.012L173.238 132.988H194.427L197.653 138.171H205.444L187.281 109.193H180.334ZM191.102 127.508H176.563L183.857 115.858L191.102 127.508Z" fill="white"/>
<path d="M35.8793 92.7538C48.8807 54.9886 84.709 29.6143 125.103 29.6143C165.496 29.6143 201.374 54.9886 214.326 92.7538L214.425 93.05H242.86V89.6437L231.049 88.2615C223.755 87.4222 222.216 84.2134 220.231 80.1654L219.735 79.1781C202.665 43.042 165.496 19.6423 125.103 19.6423C84.6594 19.6423 47.5409 43.042 30.4703 79.2768L29.9741 80.2641C27.9892 84.3122 26.4508 87.521 19.1561 88.3602L7.3457 89.7425V93.1487H35.7305L35.8793 92.7538Z" fill="white"/>
<path d="M214.425 154.363L214.325 154.659C201.324 192.425 165.496 217.749 125.102 217.749C84.7082 217.749 48.8303 192.375 35.8785 154.61L35.7793 154.314H7.39453V157.72L19.205 159.102C26.4997 159.942 28.038 163.15 30.0229 167.198L30.5192 168.186C47.5897 204.421 84.7579 227.82 125.152 227.82C165.545 227.82 202.713 204.421 219.784 168.235L220.28 167.248C222.265 163.2 223.803 159.991 231.098 159.152L242.909 157.769V154.363H214.425Z" fill="white"/>
</g>
<defs>
<clipPath id="clip0_24_857">
<rect width="249.45" height="208.724" fill="white" transform="translate(0 19.6423)"/>
</clipPath>
</defs>
</svg>
