<svg width="14" height="285" viewBox="0 0 14 285" fill="none" xmlns="http://www.w3.org/2000/svg">
<rect x="6.34961" y="11.8843" width="0.392801" height="113.912" fill="white"/>
<circle cx="6.54641" cy="137.581" r="2.61867" fill="white"/>
<path d="M1.02828 162.657C1.02828 161.984 1.14176 161.343 1.36871 160.732C1.60439 160.13 1.90554 159.658 2.27215 159.318L2.7697 159.619C2.42927 159.942 2.14995 160.374 1.93172 160.915C1.72223 161.465 1.61748 162.041 1.61748 162.643C1.61748 163.516 1.78333 164.175 2.11503 164.621C2.44673 165.066 2.87881 165.288 3.41127 165.288C3.82153 165.288 4.14887 165.17 4.39328 164.935C4.63769 164.699 4.82536 164.407 4.95629 164.058C5.08722 163.708 5.22252 163.237 5.36218 162.643C5.52803 161.971 5.68952 161.43 5.84664 161.02C6.00376 160.618 6.2438 160.274 6.56677 159.986C6.89847 159.706 7.33928 159.567 7.8892 159.567C8.33438 159.567 8.74027 159.684 9.10689 159.92C9.48223 160.156 9.77901 160.514 9.99723 160.994C10.2155 161.483 10.3246 162.089 10.3246 162.814C10.3246 163.32 10.2504 163.817 10.102 164.306C9.95359 164.795 9.75282 165.218 9.49969 165.576L8.96286 165.328C9.216 164.961 9.40803 164.555 9.53897 164.11C9.6699 163.673 9.73537 163.241 9.73537 162.814C9.73537 161.967 9.56515 161.325 9.22473 160.889C8.8843 160.453 8.44349 160.234 7.9023 160.234C7.49204 160.234 7.1647 160.352 6.92029 160.588C6.67588 160.823 6.48821 161.116 6.35728 161.465C6.22635 161.814 6.08668 162.29 5.93829 162.892C5.77244 163.564 5.61096 164.101 5.45384 164.503C5.29672 164.904 5.05667 165.245 4.7337 165.524C4.41946 165.812 3.99175 165.956 3.45055 165.956C3.00538 165.956 2.59949 165.834 2.23287 165.589C1.86626 165.354 1.57384 164.987 1.35562 164.49C1.13739 163.992 1.02828 163.381 1.02828 162.657ZM1.02828 172.102C1.02828 171.203 1.22905 170.391 1.63058 169.666C2.03211 168.951 2.58639 168.383 3.29343 167.964C4.00048 167.554 4.79481 167.349 5.67643 167.349C6.55804 167.349 7.35238 167.554 8.05942 167.964C8.76646 168.383 9.32074 168.951 9.72227 169.666C10.1238 170.391 10.3246 171.203 10.3246 172.102C10.3246 172.765 10.2155 173.376 9.99723 173.935C9.78774 174.493 9.4735 174.969 9.05451 175.362L8.62243 174.943C9.34693 174.21 9.70918 173.271 9.70918 172.128C9.70918 171.36 9.5346 170.662 9.18545 170.033C8.83629 169.405 8.35183 168.911 7.73208 168.553C7.12106 168.196 6.43584 168.017 5.67643 168.017C4.91701 168.017 4.22743 168.196 3.60767 168.553C2.99665 168.911 2.51656 169.405 2.16741 170.033C1.81825 170.662 1.64367 171.36 1.64367 172.128C1.64367 173.263 2.01029 174.201 2.74351 174.943L2.31143 175.362C1.89244 174.969 1.57384 174.489 1.35562 173.922C1.13739 173.363 1.02828 172.756 1.02828 172.102ZM1.09375 183.962L4.1576 181.775C4.11395 181.452 4.09213 181.156 4.09213 180.885V178.266H1.09375V177.599H10.2591V180.885C10.2591 182.037 9.98414 182.941 9.43422 183.595C8.89303 184.25 8.13798 184.577 7.16907 184.577C6.44457 184.577 5.83355 184.39 5.336 184.014C4.84718 183.648 4.50239 183.12 4.30162 182.43L1.09375 184.721V183.962ZM4.68133 180.885C4.68133 181.863 4.89519 182.609 5.3229 183.124C5.75935 183.639 6.37474 183.897 7.16907 183.897C7.9634 183.897 8.57442 183.639 9.00214 183.124C9.43858 182.609 9.65681 181.863 9.65681 180.885V178.266H4.68133V180.885ZM1.02828 190.911C1.02828 190.012 1.22905 189.2 1.63058 188.476C2.04084 187.751 2.59949 187.179 3.30653 186.76C4.01357 186.35 4.80353 186.145 5.67643 186.145C6.54932 186.145 7.33928 186.35 8.04632 186.76C8.75336 187.179 9.30765 187.751 9.70918 188.476C10.1194 189.2 10.3246 190.012 10.3246 190.911C10.3246 191.81 10.1238 192.622 9.72227 193.346C9.32074 194.071 8.76646 194.638 8.05942 195.048C7.35238 195.467 6.55804 195.677 5.67643 195.677C4.79481 195.677 4.00048 195.467 3.29343 195.048C2.58639 194.638 2.03211 194.071 1.63058 193.346C1.22905 192.622 1.02828 191.81 1.02828 190.911ZM1.64367 190.911C1.64367 191.679 1.81825 192.373 2.16741 192.993C2.51656 193.613 2.99665 194.101 3.60767 194.459C4.22743 194.817 4.91701 194.996 5.67643 194.996C6.43584 194.996 7.12106 194.817 7.73208 194.459C8.35183 194.101 8.83629 193.613 9.18545 192.993C9.5346 192.373 9.70918 191.679 9.70918 190.911C9.70918 190.143 9.5346 189.445 9.18545 188.816C8.83629 188.196 8.35183 187.707 7.73208 187.35C7.12106 186.992 6.43584 186.813 5.67643 186.813C4.91701 186.813 4.22743 186.992 3.60767 187.35C2.99665 187.707 2.51656 188.196 2.16741 188.816C1.81825 189.445 1.64367 190.143 1.64367 190.911ZM10.2591 197.993V198.661H1.69604V203.937H1.09375V197.993H10.2591ZM10.2591 205.652V206.32H1.69604V211.597H1.09375V205.652H10.2591ZM9.65681 218.429V215.129H10.2591V222.396H9.65681V219.096H1.09375V218.429H9.65681ZM1.02828 227.813C1.02828 226.914 1.22905 226.102 1.63058 225.377C2.04084 224.653 2.59949 224.081 3.30653 223.662C4.01357 223.252 4.80353 223.047 5.67643 223.047C6.54932 223.047 7.33928 223.252 8.04632 223.662C8.75336 224.081 9.30765 224.653 9.70918 225.377C10.1194 226.102 10.3246 226.914 10.3246 227.813C10.3246 228.712 10.1238 229.524 9.72227 230.248C9.32074 230.973 8.76646 231.54 8.05942 231.95C7.35238 232.369 6.55804 232.579 5.67643 232.579C4.79481 232.579 4.00048 232.369 3.29343 231.95C2.58639 231.54 2.03211 230.973 1.63058 230.248C1.22905 229.524 1.02828 228.712 1.02828 227.813ZM1.64367 227.813C1.64367 228.581 1.81825 229.275 2.16741 229.895C2.51656 230.514 2.99665 231.003 3.60767 231.361C4.22743 231.719 4.91701 231.898 5.67643 231.898C6.43584 231.898 7.12106 231.719 7.73208 231.361C8.35183 231.003 8.83629 230.514 9.18545 229.895C9.5346 229.275 9.70918 228.581 9.70918 227.813C9.70918 227.045 9.5346 226.346 9.18545 225.718C8.83629 225.098 8.35183 224.609 7.73208 224.251C7.12106 223.893 6.43584 223.715 5.67643 223.715C4.91701 223.715 4.22743 223.893 3.60767 224.251C2.99665 224.609 2.51656 225.098 2.16741 225.718C1.81825 226.346 1.64367 227.045 1.64367 227.813ZM10.2591 245.577L1.09375 241.492V240.824L10.2591 236.739V237.472L1.95791 241.178L10.2591 244.883V245.577ZM10.2591 247.055V247.723H1.09375V247.055H10.2591ZM1.69604 257.24H1.09375V250.916H10.2591V257.044H9.65681V251.584H6.04304V256.468H5.45384V251.584H1.69604V257.24ZM10.2591 271.803L1.09375 268.699V267.992L9.31638 265.151L1.09375 262.297V261.59L10.2591 258.474V259.181L2.01028 261.969L10.2591 264.837V265.478L1.99719 268.333L10.2591 271.148V271.803Z" fill="white"/>
</svg>
