<svg width="139" height="23" viewBox="0 0 139 23" fill="none" xmlns="http://www.w3.org/2000/svg">
<g clip-path="url(#clip0_1_8)">
<path d="M33.4343 16.7853C32.3628 16.7319 31.5847 16.6529 30.5224 16.7296C30.0514 16.7644 29.4348 17.1338 29.1901 17.538C28.4742 18.7229 27.8831 19.9867 27.3035 21.2482C26.9179 22.0893 26.3729 22.4331 25.4215 22.4215C21.6553 22.3727 17.8867 22.3704 14.1205 22.4215C13.2038 22.4331 12.7096 22.0962 12.3517 21.2947C11.816 20.0982 11.2087 18.9366 10.6291 17.7611C10.2365 16.9619 9.72848 16.618 8.71938 16.7063C6.84896 16.869 4.95545 16.8225 3.07811 16.7342C2.61166 16.711 2.00897 16.2928 1.75034 15.8769C1.14072 14.9035 0.699673 13.8209 0.193968 12.7824C-0.115459 12.1458 -0.129314 11.6092 0.759711 11.5859C2.86797 11.5325 4.97854 11.4791 7.08449 11.5255C7.40547 11.5325 7.80957 12.0273 8.01047 12.3874C8.64318 13.5258 9.26203 14.6805 9.76312 15.8793C10.1326 16.7644 10.7053 17.1245 11.6104 17.1268C14.9541 17.1315 18.2978 17.1524 21.6414 17.1617C23.7174 17.1663 25.7933 17.1385 27.8692 17.1617C28.8137 17.171 29.4579 16.855 29.8574 15.9304C30.3908 14.6944 30.9866 13.477 31.6678 12.3154C31.8964 11.9251 32.4529 11.5116 32.8778 11.4907C34.7159 11.4001 36.5609 11.4326 38.4036 11.4605C39.6482 11.4791 39.8653 11.8345 39.3527 12.9473C38.8862 13.9626 38.4567 15.0104 37.861 15.9466C37.6023 16.3532 36.9904 16.6831 36.4985 16.7528C35.5934 16.8806 34.6581 16.79 33.7368 16.79C33.6768 16.79 33.4528 16.7876 33.4343 16.7876V16.7853Z" fill="white"/>
<path d="M19.7364 6.88837C16.2796 6.88837 12.8204 6.88837 9.36363 6.88604C7.95967 6.88604 7.79803 6.62119 8.42843 5.32251C9.11886 3.90069 9.84394 2.49514 10.5205 1.06403C10.8715 0.320596 11.3357 -0.00697902 12.2108 -9.33059e-06C17.321 0.044132 22.4312 0.0394856 27.539 -9.33059e-06C28.3287 -0.00697902 28.7444 0.320596 29.0561 0.961808C29.7997 2.48585 30.5709 3.99595 31.296 5.52695C31.7671 6.51897 31.5454 6.87907 30.4532 6.88372C26.8809 6.89998 23.3063 6.89069 19.7341 6.88837H19.7364Z" fill="white"/>
</g>
<path d="M54.9519 14.0754H48.287L46.9074 17.2107H45.062L50.7415 4.66929H52.5152L58.2126 17.2107H56.3314L54.9519 14.0754ZM54.3248 12.6421L51.6194 6.49676L48.914 12.6421H54.3248ZM68.5084 7.71507V17.2107H66.878V15.7774C66.5316 16.2671 66.0718 16.6494 65.4984 16.9241C64.937 17.1869 64.3219 17.3182 63.653 17.3182C62.387 17.3182 61.3896 16.9719 60.661 16.2791C59.9324 15.5744 59.5681 14.5412 59.5681 13.1796V7.71507H61.2881V12.9825C61.2881 13.9022 61.5091 14.6009 61.951 15.0787C62.3929 15.5445 63.026 15.7774 63.8501 15.7774C64.7579 15.7774 65.4745 15.5027 66.0001 14.9533C66.5256 14.4038 66.7884 13.6275 66.7884 12.6242V7.71507H68.5084ZM77.1218 16.6553C76.871 16.8703 76.5604 17.0376 76.1902 17.157C75.8199 17.2645 75.4377 17.3182 75.0435 17.3182C74.088 17.3182 73.3474 17.0614 72.8219 16.5478C72.2963 16.0342 72.0336 15.2997 72.0336 14.3441V9.13047H70.4211V7.71507H72.0336V5.63678H73.7535V7.71507H76.4768V9.13047H73.7535V14.2725C73.7535 14.7861 73.8789 15.1802 74.1298 15.4549C74.3925 15.7297 74.7628 15.867 75.2406 15.867C75.7661 15.867 76.214 15.7177 76.5843 15.4191L77.1218 16.6553ZM82.9533 17.3182C82.0097 17.3182 81.1617 17.1092 80.4092 16.6912C79.6567 16.2731 79.0654 15.6998 78.6355 14.9712C78.2174 14.2307 78.0084 13.3946 78.0084 12.4629C78.0084 11.5313 78.2174 10.7011 78.6355 9.97254C79.0654 9.23199 79.6567 8.65867 80.4092 8.25257C81.1617 7.83452 82.0097 7.62549 82.9533 7.62549C83.8969 7.62549 84.739 7.83452 85.4795 8.25257C86.232 8.65867 86.8173 9.23199 87.2353 9.97254C87.6653 10.7011 87.8803 11.5313 87.8803 12.4629C87.8803 13.3946 87.6653 14.2307 87.2353 14.9712C86.8173 15.6998 86.232 16.2731 85.4795 16.6912C84.739 17.1092 83.8969 17.3182 82.9533 17.3182ZM82.9533 15.8133C83.5625 15.8133 84.1059 15.6759 84.5837 15.4012C85.0734 15.1145 85.4556 14.7204 85.7303 14.2187C86.005 13.7051 86.1424 13.1198 86.1424 12.4629C86.1424 11.806 86.005 11.2267 85.7303 10.725C85.4556 10.2114 85.0734 9.81726 84.5837 9.54254C84.1059 9.26782 83.5625 9.13047 82.9533 9.13047C82.3441 9.13047 81.7947 9.26782 81.305 9.54254C80.8272 9.81726 80.445 10.2114 80.1583 10.725C79.8836 11.2267 79.7463 11.806 79.7463 12.4629C79.7463 13.1198 79.8836 13.7051 80.1583 14.2187C80.445 14.7204 80.8272 15.1145 81.305 15.4012C81.7947 15.6759 82.3441 15.8133 82.9533 15.8133ZM102.138 17.2107L102.12 8.0734L97.5868 15.6879H96.7626L92.2298 8.12715V17.2107H90.5098V4.66929H91.9789L97.2105 13.4841L102.37 4.66929H103.84L103.857 17.2107H102.138ZM111.438 17.3182C110.494 17.3182 109.646 17.1092 108.893 16.6912C108.141 16.2731 107.55 15.6998 107.12 14.9712C106.702 14.2307 106.493 13.3946 106.493 12.4629C106.493 11.5313 106.702 10.7011 107.12 9.97254C107.55 9.23199 108.141 8.65867 108.893 8.25257C109.646 7.83452 110.494 7.62549 111.438 7.62549C112.381 7.62549 113.223 7.83452 113.964 8.25257C114.716 8.65867 115.301 9.23199 115.72 9.97254C116.15 10.7011 116.365 11.5313 116.365 12.4629C116.365 13.3946 116.15 14.2307 115.72 14.9712C115.301 15.6998 114.716 16.2731 113.964 16.6912C113.223 17.1092 112.381 17.3182 111.438 17.3182ZM111.438 15.8133C112.047 15.8133 112.59 15.6759 113.068 15.4012C113.558 15.1145 113.94 14.7204 114.215 14.2187C114.489 13.7051 114.627 13.1198 114.627 12.4629C114.627 11.806 114.489 11.2267 114.215 10.725C113.94 10.2114 113.558 9.81726 113.068 9.54254C112.59 9.26782 112.047 9.13047 111.438 9.13047C110.828 9.13047 110.279 9.26782 109.789 9.54254C109.311 9.81726 108.929 10.2114 108.643 10.725C108.368 11.2267 108.23 11.806 108.23 12.4629C108.23 13.1198 108.368 13.7051 108.643 14.2187C108.929 14.7204 109.311 15.1145 109.789 15.4012C110.279 15.6759 110.828 15.8133 111.438 15.8133ZM126.884 7.71507L122.727 17.2107H120.971L116.815 7.71507H118.606L121.867 15.3295L125.199 7.71507H126.884ZM136.808 12.5167C136.808 12.648 136.796 12.8212 136.772 13.0362H129.068C129.176 13.8723 129.54 14.5472 130.161 15.0608C130.794 15.5624 131.577 15.8133 132.508 15.8133C133.643 15.8133 134.557 15.4311 135.249 14.6666L136.199 15.7774C135.769 16.2791 135.232 16.6613 134.587 16.9241C133.954 17.1869 133.243 17.3182 132.455 17.3182C131.451 17.3182 130.561 17.1152 129.785 16.7091C129.009 16.291 128.405 15.7117 127.975 14.9712C127.557 14.2307 127.348 13.3946 127.348 12.4629C127.348 11.5432 127.551 10.7131 127.957 9.97254C128.376 9.23199 128.943 8.65867 129.66 8.25257C130.388 7.83452 131.206 7.62549 132.114 7.62549C133.022 7.62549 133.828 7.83452 134.533 8.25257C135.249 8.65867 135.805 9.23199 136.199 9.97254C136.605 10.7131 136.808 11.5611 136.808 12.5167ZM132.114 9.07672C131.29 9.07672 130.597 9.32755 130.036 9.8292C129.486 10.3309 129.164 10.9878 129.068 11.8H135.16C135.064 10.9997 134.736 10.3488 134.174 9.84712C133.625 9.33352 132.938 9.07672 132.114 9.07672Z" fill="white"/>
<defs>
<clipPath id="clip0_1_8">
<rect width="39.6113" height="22.4215" fill="white"/>
</clipPath>
</defs>
</svg>
