<svg width="240" height="39" viewBox="0 0 240 39" fill="none" xmlns="http://www.w3.org/2000/svg">
<g clip-path="url(#clip0_2009_3631)">
<path d="M58.1561 29.1964C56.2924 29.1034 54.9389 28.966 53.0912 29.0994C52.2719 29.16 51.1994 29.8025 50.7737 30.5057C49.5286 32.5666 48.5003 34.7649 47.4922 36.9592C46.8214 38.422 45.8735 39.0201 44.2187 38.9999C37.6677 38.9151 31.1126 38.911 24.5616 38.9999C22.9671 39.0201 22.1075 38.4342 21.485 37.04C20.5531 34.9589 19.4968 32.9384 18.4886 30.8936C17.8058 29.5035 16.9222 28.9054 15.1669 29.059C11.9135 29.3418 8.61993 29.261 5.35447 29.1075C4.54313 29.0671 3.49481 28.3397 3.04495 27.6163C1.98458 25.9231 1.21742 24.04 0.337792 22.2337C-0.200426 21.1264 -0.224526 20.193 1.32185 20.1525C4.98896 20.0596 8.6601 19.9667 12.3232 20.0475C12.8815 20.0596 13.5844 20.9203 13.9338 21.5467C15.0344 23.5268 16.1108 25.5352 16.9824 27.6204C17.625 29.16 18.6212 29.7864 20.1956 29.7904C26.0116 29.7985 31.8276 29.8349 37.6436 29.851C41.2545 29.8591 44.8653 29.8106 48.4762 29.851C50.119 29.8672 51.2396 29.3176 51.9345 27.7093C52.8623 25.5594 53.8986 23.4419 55.0835 21.4214C55.4811 20.7425 56.4491 20.0232 57.1881 19.9869C60.3853 19.8293 63.5945 19.8858 66.7998 19.9343C68.9647 19.9667 69.3422 20.5849 68.4506 22.5206C67.6392 24.2865 66.8921 26.109 65.8559 27.7376C65.406 28.4447 64.3416 29.0186 63.4861 29.1398C61.9116 29.3621 60.2849 29.2045 58.6823 29.2045C58.5779 29.2045 58.1883 29.2004 58.1561 29.2004V29.1964Z" fill="#191917"/>
<path d="M34.3295 11.9816C28.3167 11.9816 22.2999 11.9816 16.2871 11.9776C13.845 11.9776 13.5639 11.5169 14.6604 9.25795C15.8614 6.78484 17.1226 4.34001 18.2994 1.85074C18.9099 0.557608 19.7172 -0.0121778 21.2395 -5.46761e-05C30.1282 0.0767249 39.0168 0.0686429 47.9014 -5.46761e-05C49.2751 -0.0121778 49.9981 0.557608 50.5403 1.67293C51.8336 4.32385 53.1752 6.95052 54.4364 9.61356C55.2557 11.3391 54.8701 11.9654 52.9703 11.9735C46.7567 12.0018 40.5391 11.9856 34.3255 11.9816H34.3295Z" fill="#191917"/>
</g>
<path d="M95.5833 25.0463H83.9904L81.5908 30.5H78.3809L88.2599 8.68537H91.3451L101.255 30.5H97.983L95.5833 25.0463ZM94.4926 22.5532L89.7869 11.8641L85.0812 22.5532H94.4926ZM119.164 13.9832V30.5H116.328V28.0069C115.725 28.8587 114.925 29.5235 113.928 30.0014C112.952 30.4584 111.882 30.687 110.718 30.687C108.516 30.687 106.781 30.0845 105.514 28.8795C104.247 27.6537 103.613 25.8566 103.613 23.4882V13.9832H106.605V23.1454C106.605 24.7451 106.989 25.9605 107.758 26.7915C108.526 27.6018 109.627 28.0069 111.061 28.0069C112.64 28.0069 113.887 27.5291 114.801 26.5734C115.715 25.6177 116.172 24.2672 116.172 22.5221V13.9832H119.164ZM134.146 29.5339C133.71 29.9079 133.169 30.1988 132.525 30.4065C131.881 30.5935 131.216 30.687 130.531 30.687C128.869 30.687 127.581 30.2403 126.667 29.3469C125.752 28.4536 125.295 27.1759 125.295 25.5138V16.4451H122.491V13.9832H125.295V10.3682H128.287V13.9832H133.024V16.4451H128.287V25.3891C128.287 26.2825 128.505 26.9681 128.941 27.446C129.399 27.9238 130.043 28.1627 130.874 28.1627C131.788 28.1627 132.567 27.903 133.211 27.3836L134.146 29.5339ZM144.289 30.687C142.648 30.687 141.173 30.3234 139.864 29.5963C138.555 28.8691 137.527 27.8719 136.779 26.6045C136.052 25.3164 135.688 23.8621 135.688 22.2416C135.688 20.6211 136.052 19.1772 136.779 17.9098C137.527 16.6217 138.555 15.6245 139.864 14.9181C141.173 14.191 142.648 13.8274 144.289 13.8274C145.93 13.8274 147.395 14.191 148.683 14.9181C149.992 15.6245 151.01 16.6217 151.737 17.9098C152.485 19.1772 152.859 20.6211 152.859 22.2416C152.859 23.8621 152.485 25.3164 151.737 26.6045C151.01 27.8719 149.992 28.8691 148.683 29.5963C147.395 30.3234 145.93 30.687 144.289 30.687ZM144.289 28.0692C145.349 28.0692 146.294 27.8303 147.125 27.3525C147.977 26.8538 148.642 26.1682 149.12 25.2957C149.597 24.4023 149.836 23.3843 149.836 22.2416C149.836 21.0989 149.597 20.0913 149.12 19.2187C148.642 18.3254 147.977 17.6398 147.125 17.1619C146.294 16.6841 145.349 16.4451 144.289 16.4451C143.23 16.4451 142.274 16.6841 141.422 17.1619C140.591 17.6398 139.926 18.3254 139.428 19.2187C138.95 20.0913 138.711 21.0989 138.711 22.2416C138.711 23.3843 138.95 24.4023 139.428 25.2957C139.926 26.1682 140.591 26.8538 141.422 27.3525C142.274 27.8303 143.23 28.0692 144.289 28.0692ZM177.658 30.5L177.627 14.6065L169.743 27.8511H168.309L160.425 14.7V30.5H157.433V8.68537H159.988L169.088 24.0179L178.063 8.68537H180.619L180.65 30.5H177.658ZM193.835 30.687C192.193 30.687 190.718 30.3234 189.409 29.5963C188.101 28.8691 187.072 27.8719 186.324 26.6045C185.597 25.3164 185.233 23.8621 185.233 22.2416C185.233 20.6211 185.597 19.1772 186.324 17.9098C187.072 16.6217 188.101 15.6245 189.409 14.9181C190.718 14.191 192.193 13.8274 193.835 13.8274C195.476 13.8274 196.941 14.191 198.229 14.9181C199.538 15.6245 200.556 16.6217 201.283 17.9098C202.031 19.1772 202.405 20.6211 202.405 22.2416C202.405 23.8621 202.031 25.3164 201.283 26.6045C200.556 27.8719 199.538 28.8691 198.229 29.5963C196.941 30.3234 195.476 30.687 193.835 30.687ZM193.835 28.0692C194.894 28.0692 195.84 27.8303 196.671 27.3525C197.522 26.8538 198.187 26.1682 198.665 25.2957C199.143 24.4023 199.382 23.3843 199.382 22.2416C199.382 21.0989 199.143 20.0913 198.665 19.2187C198.187 18.3254 197.522 17.6398 196.671 17.1619C195.84 16.6841 194.894 16.4451 193.835 16.4451C192.775 16.4451 191.819 16.6841 190.968 17.1619C190.137 17.6398 189.472 18.3254 188.973 19.2187C188.495 20.0913 188.256 21.0989 188.256 22.2416C188.256 23.3843 188.495 24.4023 188.973 25.2957C189.472 26.1682 190.137 26.8538 190.968 27.3525C191.819 27.8303 192.775 28.0692 193.835 28.0692ZM220.701 13.9832L213.471 30.5H210.417L203.187 13.9832H206.304L211.976 27.2278L217.772 13.9832H220.701ZM237.964 22.3351C237.964 22.5636 237.944 22.8649 237.902 23.2388H224.502C224.689 24.6932 225.322 25.867 226.403 26.7603C227.504 27.6329 228.865 28.0692 230.485 28.0692C232.459 28.0692 234.048 27.4044 235.253 26.0747L236.905 28.0069C236.157 28.8795 235.222 29.5443 234.1 30.0014C232.999 30.4584 231.763 30.687 230.392 30.687C228.647 30.687 227.099 30.3338 225.748 29.6274C224.398 28.9003 223.349 27.8926 222.601 26.6045C221.874 25.3164 221.51 23.8621 221.51 22.2416C221.51 20.6419 221.863 19.1979 222.57 17.9098C223.297 16.6217 224.284 15.6245 225.53 14.9181C226.797 14.191 228.221 13.8274 229.8 13.8274C231.379 13.8274 232.781 14.191 234.007 14.9181C235.253 15.6245 236.219 16.6217 236.905 17.9098C237.611 19.1979 237.964 20.673 237.964 22.3351ZM229.8 16.3517C228.366 16.3517 227.161 16.7879 226.185 17.6605C225.229 18.5331 224.668 19.6758 224.502 21.0885H235.097C234.931 19.6966 234.36 18.5643 233.383 17.6917C232.428 16.7983 231.233 16.3517 229.8 16.3517Z" fill="#191917"/>
<defs>
<clipPath id="clip0_2009_3631">
<rect width="68.9" height="39" fill="white"/>
</clipPath>
</defs>
</svg>
