<svg width="553" height="81" viewBox="0 0 553 81" fill="none" xmlns="http://www.w3.org/2000/svg">
<mask id="path-1-outside-1_9_630" maskUnits="userSpaceOnUse" x="-0.939453" y="-0.36377" width="554" height="82" fill="black">
<rect fill="white" x="-0.939453" y="-0.36377" width="554" height="82"/>
<path d="M69.6733 77.6362L69.5671 33.0408L47.6941 69.7789H39.943L18.1762 33.9964V77.6362H2.03685V3.31043H16.2649L44.084 49.4986L71.4784 3.31043H85.6003L85.8126 77.6362H69.6733ZM139.442 78.9104C131.726 78.9104 124.753 77.2469 118.524 73.9199C112.366 70.593 107.517 66.0272 103.978 60.2228C100.509 54.3475 98.7749 47.7643 98.7749 40.4733C98.7749 33.1823 100.509 26.6346 103.978 20.8301C107.517 14.9548 112.366 10.3537 118.524 7.02673C124.753 3.69976 131.726 2.03628 139.442 2.03628C147.157 2.03628 154.094 3.69976 160.253 7.02673C166.411 10.3537 171.26 14.9548 174.8 20.8301C178.339 26.6346 180.109 33.1823 180.109 40.4733C180.109 47.7643 178.339 54.3475 174.8 60.2228C171.26 66.0272 166.411 70.593 160.253 73.9199C154.094 77.2469 147.157 78.9104 139.442 78.9104ZM139.442 64.2576C143.83 64.2576 147.794 63.2666 151.334 61.2846C154.873 59.2317 157.634 56.4003 159.616 52.7902C161.669 49.1801 162.695 45.0745 162.695 40.4733C162.695 35.8722 161.669 31.7666 159.616 28.1565C157.634 24.5464 154.873 21.7503 151.334 19.7683C147.794 17.7155 143.83 16.6891 139.442 16.6891C135.053 16.6891 131.089 17.7155 127.55 19.7683C124.01 21.7503 121.214 24.5464 119.161 28.1565C117.179 31.7666 116.188 35.8722 116.188 40.4733C116.188 45.0745 117.179 49.1801 119.161 52.7902C121.214 56.4003 124.01 59.2317 127.55 61.2846C131.089 63.2666 135.053 64.2576 139.442 64.2576ZM247.612 38.9868C251.859 40.3318 255.186 42.5969 257.593 45.7823C260 48.8969 261.203 52.7548 261.203 57.3559C261.203 63.8683 258.655 68.8941 253.558 72.4334C248.532 75.902 241.171 77.6362 231.473 77.6362H193.036V3.31043H229.349C238.41 3.31043 245.347 5.0447 250.161 8.51324C255.045 11.9818 257.487 16.6891 257.487 22.6351C257.487 26.2453 256.602 29.466 254.832 32.2975C253.134 35.129 250.727 37.3587 247.612 38.9868ZM210.131 16.2644V33.784H227.226C231.473 33.784 234.694 33.0408 236.888 31.5542C239.082 30.0677 240.18 27.8733 240.18 24.9711C240.18 22.0689 239.082 19.9099 236.888 18.4941C234.694 17.0076 231.473 16.2644 227.226 16.2644H210.131ZM230.199 64.6823C234.729 64.6823 238.127 63.939 240.392 62.4525C242.728 60.966 243.896 58.6655 243.896 55.5509C243.896 49.3924 239.33 46.3132 230.199 46.3132H210.131V64.6823H230.199ZM274.226 3.31043H291.427V77.6362H274.226V3.31043ZM309.066 3.31043H326.267V63.6205H363.536V77.6362H309.066V3.31043ZM373.147 3.31043H390.348V77.6362H373.147V3.31043ZM423.384 17.3262H399.599V3.31043H464.369V17.3262H440.585V77.6362H423.384V17.3262ZM519.632 51.3037V77.6362H502.431V51.0913L473.656 3.31043H491.919L511.775 36.3323L531.631 3.31043H548.513L519.632 51.3037Z"/>
</mask>
<path d="M69.6733 77.6362L67.6371 77.6411L67.6419 79.6725H69.6733V77.6362ZM69.5671 33.0408L71.6034 33.0359L71.5858 25.6698L67.8175 31.9991L69.5671 33.0408ZM47.6941 69.7789V71.8152H48.8516L49.4437 70.8206L47.6941 69.7789ZM39.943 69.7789L38.2034 70.8372L38.7983 71.8152H39.943V69.7789ZM18.1762 33.9964L19.9158 32.9381L16.1399 26.7309V33.9964H18.1762ZM18.1762 77.6362V79.6725H20.2124V77.6362H18.1762ZM2.03685 77.6362H0.000614166V79.6725H2.03685V77.6362ZM2.03685 3.31043V1.27419H0.000614166V3.31043H2.03685ZM16.2649 3.31043L18.0092 2.25985L17.4156 1.27419H16.2649V3.31043ZM44.084 49.4986L42.3397 50.5492L44.0975 53.4676L45.8354 50.5373L44.084 49.4986ZM71.4784 3.31043V1.27419H70.3186L69.727 2.27169L71.4784 3.31043ZM85.6003 3.31043L87.6365 3.30462L87.6307 1.27419H85.6003V3.31043ZM85.8126 77.6362V79.6725H87.8547L87.8489 77.6304L85.8126 77.6362ZM69.6733 77.6362L71.7096 77.6314L71.6034 33.0359L69.5671 33.0408L67.5309 33.0456L67.6371 77.6411L69.6733 77.6362ZM69.5671 33.0408L67.8175 31.9991L45.9445 68.7373L47.6941 69.7789L49.4437 70.8206L71.3168 34.0824L69.5671 33.0408ZM47.6941 69.7789V67.7427H39.943V69.7789V71.8152H47.6941V69.7789ZM39.943 69.7789L41.6827 68.7207L19.9158 32.9381L18.1762 33.9964L16.4365 35.0546L38.2034 70.8372L39.943 69.7789ZM18.1762 33.9964H16.1399V77.6362H18.1762H20.2124V33.9964H18.1762ZM18.1762 77.6362V75.6H2.03685V77.6362V79.6725H18.1762V77.6362ZM2.03685 77.6362H4.07309V3.31043H2.03685H0.000614166V77.6362H2.03685ZM2.03685 3.31043V5.34667H16.2649V3.31043V1.27419H2.03685V3.31043ZM16.2649 3.31043L14.5206 4.36102L42.3397 50.5492L44.084 49.4986L45.8283 48.448L18.0092 2.25985L16.2649 3.31043ZM44.084 49.4986L45.8354 50.5373L73.2298 4.34917L71.4784 3.31043L69.727 2.27169L42.3327 48.4599L44.084 49.4986ZM71.4784 3.31043V5.34667H85.6003V3.31043V1.27419H71.4784V3.31043ZM85.6003 3.31043L83.5641 3.31625L83.7764 77.6421L85.8126 77.6362L87.8489 77.6304L87.6365 3.30462L85.6003 3.31043ZM85.8126 77.6362V75.6H69.6733V77.6362V79.6725H85.8126V77.6362ZM118.524 73.9199L117.556 75.7115L117.565 75.7161L118.524 73.9199ZM103.978 60.2228L102.224 61.2579L102.232 61.2704L102.239 61.2828L103.978 60.2228ZM103.978 20.8301L102.233 19.7794L102.23 19.7856L103.978 20.8301ZM118.524 7.02673L117.565 5.23059L117.556 5.2352L118.524 7.02673ZM174.8 20.8301L173.055 21.8808L173.061 21.8902L174.8 20.8301ZM174.8 60.2228L176.538 61.2829L176.544 61.2735L174.8 60.2228ZM160.253 73.9199L161.221 75.7115L160.253 73.9199ZM151.334 61.2846L152.329 63.0612L152.342 63.0537L152.355 63.046L151.334 61.2846ZM159.616 52.7902L157.846 51.7837L157.838 51.7969L157.831 51.8102L159.616 52.7902ZM159.616 28.1565L157.831 29.1364L157.838 29.1498L157.846 29.163L159.616 28.1565ZM151.334 19.7683L150.312 21.5297L150.325 21.5374L150.339 21.5449L151.334 19.7683ZM127.55 19.7683L128.544 21.5449L128.558 21.5374L128.571 21.5297L127.55 19.7683ZM119.161 28.1565L117.391 27.15L117.384 27.1632L117.376 27.1765L119.161 28.1565ZM119.161 52.7902L117.376 53.7701L117.384 53.7835L117.391 53.7967L119.161 52.7902ZM127.55 61.2846L126.528 63.046L126.541 63.0537L126.555 63.0612L127.55 61.2846ZM139.442 78.9104V76.8741C132.029 76.8741 125.391 75.2789 119.484 72.1238L118.524 73.9199L117.565 75.7161C124.116 79.215 131.423 80.9466 139.442 80.9466V78.9104ZM118.524 73.9199L119.492 72.1284C113.641 68.9675 109.062 64.65 105.716 59.1627L103.978 60.2228L102.239 61.2828C105.972 67.4044 111.091 72.2185 117.556 75.7115L118.524 73.9199ZM103.978 60.2228L105.731 59.1876C102.46 53.6475 100.811 47.4261 100.811 40.4733H98.7749H96.7386C96.7386 48.1025 98.5578 55.0475 102.224 61.2579L103.978 60.2228ZM98.7749 40.4733H100.811C100.811 33.5203 102.46 27.3387 105.726 21.8746L103.978 20.8301L102.23 19.7856C98.5578 25.9305 96.7386 32.8443 96.7386 40.4733H98.7749ZM103.978 20.8301L105.722 21.8808C109.069 16.3241 113.647 11.9759 119.492 8.81825L118.524 7.02673L117.556 5.2352C111.085 8.73151 105.965 13.5855 102.233 19.7794L103.978 20.8301ZM118.524 7.02673L119.484 8.82284C125.391 5.6678 132.029 4.07252 139.442 4.07252V2.03628V4.19617e-05C131.423 4.19617e-05 124.116 1.73172 117.565 5.23061L118.524 7.02673ZM139.442 2.03628V4.07252C146.855 4.07252 153.454 5.66788 159.285 8.81825L160.253 7.02673L161.221 5.2352C154.735 1.73164 147.46 4.19617e-05 139.442 4.19617e-05V2.03628ZM160.253 7.02673L159.285 8.81825C165.13 11.9759 169.708 16.3241 173.055 21.8808L174.8 20.8301L176.544 19.7794C172.813 13.5855 167.693 8.73151 161.221 5.2352L160.253 7.02673ZM174.8 20.8301L173.061 21.8902C176.391 27.3521 178.072 33.5282 178.072 40.4733H180.109H182.145C182.145 32.8365 180.286 25.917 176.538 19.77L174.8 20.8301ZM180.109 40.4733H178.072C178.072 47.4183 176.391 53.6341 173.055 59.172L174.8 60.2228L176.544 61.2735C180.286 55.0609 182.145 48.1103 182.145 40.4733H180.109ZM174.8 60.2228L173.061 59.1627C169.715 64.65 165.136 68.9675 159.285 72.1284L160.253 73.9199L161.221 75.7115C167.686 72.2185 172.805 67.4044 176.538 61.2828L174.8 60.2228ZM160.253 73.9199L159.285 72.1284C153.454 75.2788 146.855 76.8741 139.442 76.8741V78.9104V80.9466C147.46 80.9466 154.735 79.215 161.221 75.7115L160.253 73.9199ZM139.442 64.2576V66.2938C144.149 66.2938 148.461 65.2272 152.329 63.0612L151.334 61.2846L150.339 59.5079C147.128 61.3059 143.511 62.2214 139.442 62.2214V64.2576ZM151.334 61.2846L152.355 63.046C156.218 60.8058 159.241 57.7031 161.401 53.7701L159.616 52.7902L157.831 51.8102C156.026 55.0974 153.528 57.6577 150.312 59.5231L151.334 61.2846ZM159.616 52.7902L161.386 53.7967C163.631 49.8476 164.731 45.3884 164.731 40.4733H162.695H160.659C160.659 44.7605 159.706 48.5125 157.846 51.7837L159.616 52.7902ZM162.695 40.4733H164.731C164.731 35.5583 163.631 31.0991 161.386 27.15L159.616 28.1565L157.846 29.163C159.706 32.4341 160.659 36.1861 160.659 40.4733H162.695ZM159.616 28.1565L161.401 27.1765C159.238 23.2375 156.206 20.163 152.329 17.9917L151.334 19.7683L150.339 21.5449C153.54 23.3376 156.029 25.8552 157.831 29.1364L159.616 28.1565ZM151.334 19.7683L152.355 18.0069C148.483 15.761 144.162 14.6528 139.442 14.6528V16.6891V18.7253C143.499 18.7253 147.106 19.67 150.312 21.5297L151.334 19.7683ZM139.442 16.6891V14.6528C134.721 14.6528 130.4 15.761 126.528 18.0069L127.55 19.7683L128.571 21.5297C131.778 19.67 135.385 18.7253 139.442 18.7253V16.6891ZM127.55 19.7683L126.555 17.9917C122.684 20.1594 119.623 23.2254 117.391 27.15L119.161 28.1565L120.931 29.163C122.805 25.8674 125.337 23.3412 128.544 21.5449L127.55 19.7683ZM119.161 28.1565L117.376 27.1765C115.211 31.1209 114.152 35.5705 114.152 40.4733H116.188H118.225C118.225 36.1739 119.148 32.4123 120.946 29.1364L119.161 28.1565ZM116.188 40.4733H114.152C114.152 45.3762 115.211 49.8258 117.376 53.7701L119.161 52.7902L120.946 51.8102C119.148 48.5343 118.225 44.7728 118.225 40.4733H116.188ZM119.161 52.7902L117.391 53.7967C119.62 57.7153 122.672 60.8094 126.528 63.046L127.55 61.2846L128.571 59.5231C125.349 57.6541 122.809 55.0852 120.931 51.7837L119.161 52.7902ZM127.55 61.2846L126.555 63.0612C130.423 65.2272 134.734 66.2938 139.442 66.2938V64.2576V62.2214C135.372 62.2214 131.755 61.3059 128.544 59.5079L127.55 61.2846ZM247.612 38.9868L246.669 37.1822L242.33 39.4501L246.998 40.9281L247.612 38.9868ZM257.593 45.7823L255.969 47.0098L255.975 47.0186L255.982 47.0274L257.593 45.7823ZM253.558 72.4334L254.715 74.1093L254.72 74.1059L253.558 72.4334ZM193.036 77.6362H191V79.6725H193.036V77.6362ZM193.036 3.31043V1.27419H191V3.31043H193.036ZM250.161 8.51324L248.97 10.1653L248.982 10.1734L250.161 8.51324ZM254.832 32.2975L253.106 31.2183L253.096 31.234L253.086 31.2499L254.832 32.2975ZM210.131 16.2644V14.2281H208.095V16.2644H210.131ZM210.131 33.784H208.095V35.8203H210.131V33.784ZM236.888 18.4941L235.746 20.18L235.765 20.1928L235.784 20.2052L236.888 18.4941ZM240.392 62.4525L239.299 60.7346L239.287 60.7423L239.275 60.7501L240.392 62.4525ZM210.131 46.3132V44.277H208.095V46.3132H210.131ZM210.131 64.6823H208.095V66.7185H210.131V64.6823ZM247.612 38.9868L246.998 40.9281C250.891 42.161 253.845 44.1999 255.969 47.0098L257.593 45.7823L259.218 44.5548C256.527 40.994 252.828 38.5026 248.227 37.0456L247.612 38.9868ZM257.593 45.7823L255.982 47.0274C258.068 49.7274 259.167 53.1262 259.167 57.3559H261.203H263.24C263.24 52.3834 261.931 48.0664 259.204 44.5373L257.593 45.7823ZM261.203 57.3559H259.167C259.167 63.2403 256.914 67.624 252.397 70.7609L253.558 72.4334L254.72 74.1059C260.396 70.1643 263.24 64.4962 263.24 57.3559H261.203ZM253.558 72.4334L252.402 70.7575C247.862 73.8903 240.981 75.6 231.473 75.6V77.6362V79.6725C241.36 79.6725 249.203 77.9136 254.715 74.1093L253.558 72.4334ZM231.473 77.6362V75.6H193.036V77.6362V79.6725H231.473V77.6362ZM193.036 77.6362H195.072V3.31043H193.036H191V77.6362H193.036ZM193.036 3.31043V5.34667H229.349V3.31043V1.27419H193.036V3.31043ZM229.349 3.31043V5.34667C238.194 5.34667 244.643 7.04689 248.97 10.1653L250.161 8.51324L251.351 6.86123C246.052 3.04251 238.626 1.27419 229.349 1.27419V3.31043ZM250.161 8.51324L248.982 10.1734C253.333 13.2635 255.451 17.3545 255.451 22.6351H257.487H259.523C259.523 16.0236 256.757 10.7001 251.34 6.85304L250.161 8.51324ZM257.487 22.6351H255.451C255.451 25.8958 254.657 28.7367 253.106 31.2183L254.832 32.2975L256.559 33.3767C258.548 30.1953 259.523 26.5947 259.523 22.6351H257.487ZM254.832 32.2975L253.086 31.2499C251.593 33.7391 249.474 35.7161 246.669 37.1822L247.612 38.9868L248.556 40.7914C251.98 39.0013 254.674 36.5189 256.579 33.3451L254.832 32.2975ZM210.131 16.2644H208.095V33.784H210.131H212.167V16.2644H210.131ZM210.131 33.784V35.8203H227.226V33.784V31.7478H210.131V33.784ZM227.226 33.784V35.8203C231.656 35.8203 235.351 35.0547 238.03 33.2401L236.888 31.5542L235.746 29.8684C234.036 31.0268 231.29 31.7478 227.226 31.7478V33.784ZM236.888 31.5542L238.03 33.2401C240.844 31.3342 242.216 28.4733 242.216 24.9711H240.18H238.143C238.143 27.2734 237.321 28.8012 235.746 29.8684L236.888 31.5542ZM240.18 24.9711H242.216C242.216 21.4683 240.84 18.6207 237.992 16.7831L236.888 18.4941L235.784 20.2052C237.325 21.199 238.143 22.6694 238.143 24.9711H240.18ZM236.888 18.4941L238.03 16.8083C235.351 14.9936 231.656 14.2281 227.226 14.2281V16.2644V18.3006C231.29 18.3006 234.036 19.0216 235.746 20.18L236.888 18.4941ZM227.226 16.2644V14.2281H210.131V16.2644V18.3006H227.226V16.2644ZM230.199 64.6823V66.7185C234.887 66.7185 238.757 65.9611 241.509 64.1549L240.392 62.4525L239.275 60.7501C237.497 61.917 234.571 62.6461 230.199 62.6461V64.6823ZM240.392 62.4525L241.485 64.1704C244.49 62.2581 245.932 59.2588 245.932 55.5508H243.896H241.86C241.86 58.0721 240.966 59.6739 239.299 60.7346L240.392 62.4525ZM243.896 55.5508H245.932C245.932 51.8885 244.528 48.9022 241.61 46.9344C238.835 45.063 234.929 44.277 230.199 44.277V46.3132V48.3495C234.6 48.3495 237.542 49.1031 239.333 50.3108C240.981 51.4223 241.86 53.0548 241.86 55.5508H243.896ZM230.199 46.3132V44.277H210.131V46.3132V48.3495H230.199V46.3132ZM210.131 46.3132H208.095V64.6823H210.131H212.167V46.3132H210.131ZM210.131 64.6823V66.7185H230.199V64.6823V62.6461H210.131V64.6823ZM274.226 3.31043V1.27419H272.19V3.31043H274.226ZM291.427 3.31043H293.463V1.27419H291.427V3.31043ZM291.427 77.6362V79.6725H293.463V77.6362H291.427ZM274.226 77.6362H272.19V79.6725H274.226V77.6362ZM274.226 3.31043V5.34667H291.427V3.31043V1.27419H274.226V3.31043ZM291.427 3.31043H289.391V77.6362H291.427H293.463V3.31043H291.427ZM291.427 77.6362V75.6H274.226V77.6362V79.6725H291.427V77.6362ZM274.226 77.6362H276.262V3.31043H274.226H272.19V77.6362H274.226ZM309.066 3.31043V1.27419H307.03V3.31043H309.066ZM326.267 3.31043H328.304V1.27419H326.267V3.31043ZM326.267 63.6205H324.231V65.6567H326.267V63.6205ZM363.536 63.6205H365.573V61.5843H363.536V63.6205ZM363.536 77.6362V79.6725H365.573V77.6362H363.536ZM309.066 77.6362H307.03V79.6725H309.066V77.6362ZM309.066 3.31043V5.34667H326.267V3.31043V1.27419H309.066V3.31043ZM326.267 3.31043H324.231V63.6205H326.267H328.304V3.31043H326.267ZM326.267 63.6205V65.6567H363.536V63.6205V61.5843H326.267V63.6205ZM363.536 63.6205H361.5V77.6362H363.536H365.573V63.6205H363.536ZM363.536 77.6362V75.6H309.066V77.6362V79.6725H363.536V77.6362ZM309.066 77.6362H311.102V3.31043H309.066H307.03V77.6362H309.066ZM373.147 3.31043V1.27419H371.111V3.31043H373.147ZM390.348 3.31043H392.385V1.27419H390.348V3.31043ZM390.348 77.6362V79.6725H392.385V77.6362H390.348ZM373.147 77.6362H371.111V79.6725H373.147V77.6362ZM373.147 3.31043V5.34667H390.348V3.31043V1.27419H373.147V3.31043ZM390.348 3.31043H388.312V77.6362H390.348H392.385V3.31043H390.348ZM390.348 77.6362V75.6H373.147V77.6362V79.6725H390.348V77.6362ZM373.147 77.6362H375.184V3.31043H373.147H371.111V77.6362H373.147ZM423.384 17.3262H425.42V15.2899H423.384V17.3262ZM399.599 17.3262H397.563V19.3624H399.599V17.3262ZM399.599 3.31043V1.27419H397.563V3.31043H399.599ZM464.369 3.31043H466.405V1.27419H464.369V3.31043ZM464.369 17.3262V19.3624H466.405V17.3262H464.369ZM440.585 17.3262V15.2899H438.548V17.3262H440.585ZM440.585 77.6362V79.6725H442.621V77.6362H440.585ZM423.384 77.6362H421.347V79.6725H423.384V77.6362ZM423.384 17.3262V15.2899H399.599V17.3262V19.3624H423.384V17.3262ZM399.599 17.3262H401.636V3.31043H399.599H397.563V17.3262H399.599ZM399.599 3.31043V5.34667H464.369V3.31043V1.27419H399.599V3.31043ZM464.369 3.31043H462.333V17.3262H464.369H466.405V3.31043H464.369ZM464.369 17.3262V15.2899H440.585V17.3262V19.3624H464.369V17.3262ZM440.585 17.3262H438.548V77.6362H440.585H442.621V17.3262H440.585ZM440.585 77.6362V75.6H423.384V77.6362V79.6725H440.585V77.6362ZM423.384 77.6362H425.42V17.3262H423.384H421.347V77.6362H423.384ZM519.632 51.3037L517.888 50.2538L517.596 50.7382V51.3037H519.632ZM519.632 77.6362V79.6725H521.668V77.6362H519.632ZM502.431 77.6362H500.395V79.6725H502.431V77.6362ZM502.431 51.0913H504.467V50.5255L504.175 50.0408L502.431 51.0913ZM473.656 3.31043V1.27419H470.053L471.912 4.36092L473.656 3.31043ZM491.919 3.31043L493.664 2.26115L493.071 1.27419H491.919V3.31043ZM511.775 36.3323L510.03 37.3816L511.775 40.2838L513.52 37.3816L511.775 36.3323ZM531.63 3.31043V1.27419H530.479L529.885 2.26115L531.63 3.31043ZM548.513 3.31043L550.258 4.36034L552.115 1.27419H548.513V3.31043ZM519.632 51.3037H517.596V77.6362H519.632H521.668V51.3037H519.632ZM519.632 77.6362V75.6H502.431V77.6362V79.6725H519.632V77.6362ZM502.431 77.6362H504.467V51.0913H502.431H500.395V77.6362H502.431ZM502.431 51.0913L504.175 50.0408L475.401 2.25995L473.656 3.31043L471.912 4.36092L500.687 52.1418L502.431 51.0913ZM473.656 3.31043V5.34667H491.919V3.31043V1.27419H473.656V3.31043ZM491.919 3.31043L490.174 4.35972L510.03 37.3816L511.775 36.3323L513.52 35.283L493.664 2.26115L491.919 3.31043ZM511.775 36.3323L513.52 37.3816L533.376 4.35972L531.63 3.31043L529.885 2.26115L510.03 35.283L511.775 36.3323ZM531.63 3.31043V5.34667H548.513V3.31043V1.27419H531.63V3.31043ZM548.513 3.31043L546.768 2.26053L517.888 50.2538L519.632 51.3037L521.377 52.3536L550.258 4.36034L548.513 3.31043Z" fill="#D6FF41" mask="url(#path-1-outside-1_9_630)"/>
</svg>
