<svg width="42" height="42" viewBox="0 0 42 42" fill="none" xmlns="http://www.w3.org/2000/svg">
<path fill-rule="evenodd" clip-rule="evenodd" d="M11.6667 9.33333C11.6667 6.85798 12.65 4.48401 14.4003 2.73367C16.1507 0.98333 18.5246 0 21 0C23.4754 0 25.8493 0.98333 27.5997 2.73367C29.35 4.48401 30.3333 6.85798 30.3333 9.33333C30.3333 11.8087 29.35 14.1827 27.5997 15.933C25.8493 17.6833 23.4754 18.6667 21 18.6667C18.5246 18.6667 16.1507 17.6833 14.4003 15.933C12.65 14.1827 11.6667 11.8087 11.6667 9.33333ZM11.6667 23.3333C8.57247 23.3333 5.60501 24.5625 3.41709 26.7504C1.22916 28.9383 0 31.9058 0 35C0 36.8565 0.737498 38.637 2.05025 39.9497C3.36301 41.2625 5.14348 42 7 42H35C36.8565 42 38.637 41.2625 39.9497 39.9497C41.2625 38.637 42 36.8565 42 35C42 31.9058 40.7708 28.9383 38.5829 26.7504C36.395 24.5625 33.4275 23.3333 30.3333 23.3333H11.6667Z" fill="black"/>
</svg>
