<svg width="1468" height="975" viewBox="0 0 1468 975" fill="none" xmlns="http://www.w3.org/2000/svg">
<g opacity="0.07">
<path d="M1113.57 351.327C1109.01 381.232 1104.98 407.586 1099.97 437.423C1098.46 446.362 1091.6 451.956 1082.78 453.363C1072.95 454.924 1062.93 455.713 1052.97 455.867C1023.82 456.331 994.655 455.799 965.522 456.674C942.754 457.36 936.68 463.554 933.145 485.979C927.26 523.228 921.444 560.494 915.559 597.743C913.14 613.014 906.483 619.671 890.818 621.335C881.175 622.364 871.43 622.587 861.736 622.639C828.57 622.793 795.422 622.708 762.256 622.725C759.425 622.725 756.611 622.725 752.391 622.725C754.364 609.651 756.148 597.4 758.07 585.167C763.697 549.325 769.514 513.5 774.936 477.64C776.566 466.831 782.657 460.294 792.831 458.424C802.319 456.674 812.099 455.97 821.776 455.85C846.929 455.507 872.082 455.936 897.235 455.593C906.036 455.473 914.924 454.615 923.572 452.968C931.636 451.441 938.018 446.311 939.477 437.938C944.555 408.993 949.05 379.962 953.992 349.645H795.267C806.626 277.669 817.761 207.083 828.913 136.428H1147.55C1144.23 157.309 1141.03 177.589 1137.8 197.852C1136.63 205.196 1135.28 212.488 1134.25 219.848C1132.58 231.67 1125.45 238.207 1114.19 240.18C1107.19 241.415 1100 241.999 1092.9 242.05C1064.31 242.273 1035.73 242.136 1007.15 242.239C1002.02 242.256 996.834 242.479 991.773 243.183C975.49 245.447 970.515 250.2 967.924 266.174C963.549 293.231 958.642 321.421 954.249 349.285C956.771 349.113 957.509 349.25 961.678 349.113C1010.56 349.165 1058.94 348.273 1107.83 348.221C1109.73 348.221 1112.15 348.375 1114.05 347.981L1113.59 351.344L1113.57 351.327Z" stroke="#D6FF41" stroke-width="2.48244" stroke-miterlimit="10"/>
<path d="M1114.04 347.964C1118.19 322.004 1122.43 296.079 1126.48 270.103C1129.72 249.308 1135.86 242.976 1157.43 242.462C1188.86 241.724 1220.31 242.187 1251.76 241.964C1258.32 241.913 1264.92 241.467 1271.41 240.557C1285.85 238.55 1292.3 231.721 1294.57 217.24C1298.76 190.457 1303.03 163.691 1307.33 136.462H1465.96C1462.32 159.385 1458.77 181.896 1455.2 204.389C1454.39 209.468 1453.45 214.529 1452.74 219.625C1451.13 231.395 1444.11 238.138 1432.81 240.094C1425.24 241.398 1417.49 242.016 1409.8 242.084C1381.78 242.307 1353.76 242.084 1325.74 242.204C1294.48 242.342 1289.51 246.717 1284.74 277.48C1281.1 300.9 1277.43 324.303 1273.59 348.976H1432.55C1429.84 366.579 1427.35 382.896 1424.83 399.196C1423.11 410.211 1421.4 421.209 1419.56 432.207C1417.37 445.418 1412.08 451.458 1398.92 453.98C1391.41 455.421 1383.6 455.782 1375.91 455.85C1351.33 456.073 1326.74 455.885 1302.15 456.005C1294.72 456.039 1287.26 456.142 1279.88 456.897C1261.66 458.75 1255.26 464.772 1252.41 482.685C1246.37 520.483 1240.49 558.315 1234.62 596.148C1231.94 613.46 1225.49 620.923 1207.82 621.403C1167.26 622.519 1126.67 622.364 1086.09 622.725C1081.56 622.759 1077.03 622.725 1071.11 622.725C1073.22 608.707 1075.12 595.564 1077.18 582.456C1082.33 549.719 1087.56 516.983 1092.71 484.246C1095.87 464.223 1102.68 457.24 1123.06 456.657C1153.62 455.764 1184.23 456.142 1214.8 455.61C1223.9 455.456 1233.06 454.598 1242.02 453.071C1250.15 451.681 1256.72 446.619 1258.2 438.35C1263.41 409.165 1267.91 379.859 1272.87 349.319C1268.46 349.319 1265.14 349.319 1261.83 349.319C1215.8 349.319 1169.58 348.804 1123.54 348.701C1120.23 348.701 1117.66 348.495 1114.05 348.204C1114.05 348.187 1114.02 347.981 1114.02 347.981L1114.04 347.964Z" stroke="#D6FF41" stroke-width="2.48244" stroke-miterlimit="10"/>
</g>
</svg>
