<svg width="1101" height="1101" viewBox="0 0 1101 1101" fill="none" xmlns="http://www.w3.org/2000/svg">
<path d="M494.092 957.683C497.854 950.38 496.233 942.278 496.813 934.655C498.594 911.048 498.954 887.321 500.134 863.653C502.015 826.302 504.136 788.97 506.056 751.618C506.316 746.637 506.096 741.615 506.096 736.713C495.433 733.252 484.81 729.791 473.286 726.03C424.991 801.354 376.696 876.637 328.121 952.381C379.197 980.37 433.834 998.475 492.952 1006.04C493.672 990.033 494.373 974.348 495.093 958.663" stroke="#C0C2B7" stroke-width="0.766418" stroke-linecap="round" stroke-linejoin="round"/>
<path d="M920.224 728.611C893.556 718.268 866.907 707.845 840.199 697.621C801.547 682.857 762.835 668.272 724.183 653.528C720.902 652.267 717.781 650.607 713.34 650.507C706.958 659.209 700.336 668.232 693.313 677.815C750.151 747.177 806.749 816.259 863.826 885.9C906.68 844.887 940.75 799.073 965.598 745.576C950.013 739.615 935.609 734.113 921.204 728.611" stroke="#C0C2B7" stroke-width="0.766418" stroke-linecap="round" stroke-linejoin="round"/>
<path d="M605.127 144.429C601.305 217.772 597.484 291.134 593.703 364.017C604.827 367.718 615.45 371.239 626.933 375.061C675.248 299.737 723.543 224.474 772.098 148.83C721.203 120.181 666.366 102.656 606.887 94.9932C608.408 111.458 603.346 127.283 606.127 143.428" stroke="#C0C2B7" stroke-width="0.766418" stroke-linecap="round" stroke-linejoin="round"/>
<path d="M561.114 140.427C563.114 170.777 565.255 201.106 567.075 231.456C568.616 257.444 569.756 283.472 571.137 309.48C571.997 325.825 572.977 342.17 574.038 360.516C559.533 360.636 544.689 357.575 528.684 361.496C533.225 271.088 537.706 181.76 542.188 92.3522C547.469 90.8717 552.791 90.8717 559.393 92.7123C557.433 108.137 562.454 123.622 560.133 139.407" stroke="#C0C2B7" stroke-width="0.766418" stroke-linecap="round" stroke-linejoin="round"/>
<path d="M573.117 739.615C557.892 743.096 542.447 741.255 526.322 740.495C531.544 830.663 536.705 919.691 541.847 1008.66C547.449 1010.22 552.79 1010.22 558.252 1008.7C559.553 981.69 560.733 954.682 562.153 927.673C564.394 884.66 567.515 841.666 568.795 798.613C569.356 779.627 573.337 760.681 570.136 741.595" stroke="#C0C2B7" stroke-width="0.766418" stroke-linecap="round" stroke-linejoin="round"/>
<path d="M623.132 726.61C613.249 731.352 602.706 734.033 591.143 736.834C596.324 826.021 601.506 915.389 606.767 1006.14C665.065 998.635 719.482 981.51 771.538 952.481C722.203 876.877 673.168 801.754 624.133 726.61" stroke="#C0C2B7" stroke-width="0.766418" stroke-linecap="round" stroke-linejoin="round"/>
<path d="M496.094 144.428C497.094 158.093 498.234 171.757 499.074 185.441C501.815 230.455 504.636 275.449 506.977 320.483C507.737 335.108 507.097 349.813 507.097 364.677C497.354 366.578 486.931 369.619 476.327 374.64C427.512 299.837 378.537 224.794 328.722 148.45C380.378 119.441 435.035 102.715 494.233 94.7529C493.353 112.098 497.474 127.623 495.093 143.428" stroke="#C0C2B7" stroke-width="0.766418" stroke-linecap="round" stroke-linejoin="round"/>
<path d="M146.985 476.532C172.993 483.194 199.001 489.836 225.009 496.539C265.021 506.862 305.054 517.165 345.046 527.588C350.148 528.909 355.069 530.829 360.191 532.49C358.73 543.533 358.39 554.537 360.011 566.44C273.524 589.808 186.757 613.235 99.4701 636.822C88.1666 579.224 88.1866 521.886 99.4701 463.588C115.395 468.23 131.12 470.75 146.005 476.532" stroke="#C0C2B7" stroke-width="0.766418" stroke-linecap="round" stroke-linejoin="round"/>
<path d="M741.169 536.551C740.749 546.894 742.089 557.277 740.028 569.101C826.215 591.688 912.682 614.355 1000.67 637.402C1012.27 579.304 1012.07 521.946 1000.85 464.008C933.828 482.314 867.548 500.52 801.167 518.485C780.781 524.007 760.095 528.428 740.168 535.551" stroke="#C0C2B7" stroke-width="0.766418" stroke-linecap="round" stroke-linejoin="round"/>
<path d="M180.995 372.5C211.664 384.503 242.294 396.627 273.043 408.471C309.675 422.595 346.386 436.52 383.077 450.464C383.958 450.804 385.058 450.504 386.959 450.504C393.441 441.781 400.243 432.638 407.145 423.336C350.447 354.154 293.69 284.912 236.492 215.13C193.899 255.723 160.248 301.197 135.061 354.514C149.665 362.076 165.09 366.678 179.994 372.48" stroke="#C0C2B7" stroke-width="0.766418" stroke-linecap="round" stroke-linejoin="round"/>
<path d="M919.224 373.5C889.215 385.504 859.265 397.667 829.176 409.471C793.905 423.315 758.434 436.68 723.223 450.684C716.881 453.205 713.56 452.605 709.999 446.623C705.518 439.08 699.856 432.258 694.935 425.456C750.852 356.114 807.109 286.353 864.147 215.611C906.56 255.943 940.591 302.278 965.658 355.694C950.834 361.856 936.429 368.178 921.225 372.5" stroke="#C0C2B7" stroke-width="0.766418" stroke-linecap="round" stroke-linejoin="round"/>
<path d="M376.055 628.58C356.929 636.142 336.743 640.023 317.017 645.485C267.762 659.129 218.346 672.253 168.991 685.598C151.966 690.199 134.94 694.8 117.735 699.442C113.514 695.981 113.094 690.639 111.533 684.297C194.699 651.827 277.945 619.337 362.011 586.527C366.632 600.011 368.773 614.735 376.055 627.579" stroke="#C0C2B7" stroke-width="0.766418" stroke-linecap="round" stroke-linejoin="round"/>
<path d="M376.056 470.53C370.614 464.708 362.792 465.469 356.01 463.668C293.71 447.103 231.351 430.838 168.992 414.513C151.626 409.971 134.241 405.47 116.136 400.768C114.735 405.31 113.195 410.351 111.374 416.273C195.08 448.183 278.506 479.993 362.752 512.123C366.713 498.199 370.434 484.534 376.056 471.53" stroke="#C0C2B7" stroke-width="0.766418" stroke-linecap="round" stroke-linejoin="round"/>
<path d="M725.163 631.581C755.833 639.923 786.462 648.466 817.212 656.528C854.824 666.411 892.575 675.834 930.227 685.637C948.232 690.319 966.118 695.441 984.464 700.482C986.064 695.06 987.425 690.419 989.065 684.817C905.479 652.887 822.353 621.137 738.047 588.947C733.386 602.932 728.785 616.756 724.163 630.58" stroke="#C0C2B7" stroke-width="0.766418" stroke-linecap="round" stroke-linejoin="round"/>
<path d="M937.23 414.513C920.565 418.854 903.86 423.095 887.215 427.537C852.524 436.8 817.853 446.183 783.182 455.526C763.716 460.767 744.27 466.049 724.244 471.47C730.566 486.215 734.867 500.219 737.828 514.664C821.554 481.954 904.96 449.404 988.746 416.673C987.366 411.372 986.065 406.37 984.645 400.928C968.96 406.03 953.015 408.211 938.23 414.493" stroke="#C0C2B7" stroke-width="0.766418" stroke-linecap="round" stroke-linejoin="round"/>
<path d="M644.138 718.608C653.021 733.673 665.485 745.956 676.268 759.521C702.216 792.171 728.765 824.341 755.193 856.631C771.098 876.057 787.183 895.323 803.188 914.669C806.509 918.69 809.79 922.732 812.551 926.093C818.292 925.112 820.773 920.091 826.255 917.09C777.38 842.086 728.545 767.163 679.289 691.559C667.506 701.423 655.722 710.065 643.158 717.588" stroke="#C0C2B7" stroke-width="0.766418" stroke-linecap="round" stroke-linejoin="round"/>
<path d="M385.058 646.585C345.386 662.25 305.674 677.875 266.021 693.62C237.652 704.884 209.484 716.707 180.915 727.451C165.49 733.252 149.905 738.634 134.521 745.456C159.568 798.553 193.399 844.807 236.032 885.5C292.83 815.098 349.247 745.176 405.524 675.414C398.502 666.892 391.58 657.749 386.038 647.586" stroke="#C0C2B7" stroke-width="0.766418" stroke-linecap="round" stroke-linejoin="round"/>
<path d="M454.08 715.607C442.396 707.745 430.312 700.422 419.689 689.419C370.974 765.343 322.679 840.626 274.004 916.49C277.765 919.791 281.586 923.772 287.228 925.473C323.399 880.999 359.89 836.445 396.002 791.571C416.208 766.463 435.594 740.675 457.081 716.607" stroke="#C0C2B7" stroke-width="0.766418" stroke-linecap="round" stroke-linejoin="round"/>
<path d="M643.139 384.504C667.386 358.475 687.893 329.346 710.98 302.318C732.846 276.71 753.173 249.782 774.179 223.453C787.203 207.128 800.267 190.843 813.131 174.758C817.593 177.659 822.234 180.6 825.815 185.281C777.98 259.885 729.645 335.268 680.81 411.432C670.107 401.289 658.483 392.886 646.12 385.504" stroke="#C0C2B7" stroke-width="0.766418" stroke-linecap="round" stroke-linejoin="round"/>
<path d="M302.032 225.454C318.417 252.742 336.323 279.05 353.908 305.559C375.795 338.549 396.702 372.16 418.088 405.49C418.828 406.65 420.049 407.511 421.649 409.091C432.533 399.408 444.636 391.226 458.001 383.083C400.923 313.361 344.025 243.86 286.968 174.178C282.586 177.319 278.305 180.38 273.604 183.741C282.726 197.285 291.869 210.869 301.012 224.453" stroke="#C0C2B7" stroke-width="0.766418" stroke-linecap="round" stroke-linejoin="round"/>
<path d="M425.071 542.553C448.238 539.132 455.661 516.885 448.058 502.54C441.736 490.616 428.652 485.175 416.048 488.456C402.204 492.057 394.942 504.861 396.062 517.525C397.202 530.369 407.045 539.752 421.05 541.552C422.07 541.692 423.05 542.192 424.051 542.533" stroke="#C0C2B7" stroke-width="0.766418" stroke-linecap="round" stroke-linejoin="round"/>
<path d="M955.235 478.533C958.356 501.78 961.437 525.007 961.297 548.554C961.157 573.782 959.356 598.83 954.234 623.578" stroke="#C0C2B7" stroke-width="0.766418" stroke-linecap="round" stroke-linejoin="round"/>
<path d="M145.985 477.532C136.582 524.807 137.042 572.162 145.005 619.577C145.185 620.597 145.645 621.577 145.985 622.578" stroke="#C0C2B7" stroke-width="0.766418" stroke-linecap="round" stroke-linejoin="round"/>
<path d="M494.093 143.428C461.342 147.71 429.653 155.992 399.083 168.456C384.439 174.438 369.634 180.12 356.05 188.442" stroke="#C0C2B7" stroke-width="0.766418" stroke-linecap="round" stroke-linejoin="round"/>
<path d="M607.127 143.428C642.378 148.25 676.468 157.393 709.139 171.497C721.322 176.759 733.166 182.761 745.17 188.442" stroke="#C0C2B7" stroke-width="0.766418" stroke-linecap="round" stroke-linejoin="round"/>
<path d="M744.17 912.669C708.359 932.435 670.187 945.699 630.134 953.641C622.172 955.222 614.129 956.342 606.127 957.683" stroke="#C0C2B7" stroke-width="0.766418" stroke-linecap="round" stroke-linejoin="round"/>
<path d="M357.05 912.669C379.757 926.833 404.825 935.536 430.092 943.618C450.639 950.18 471.725 954.662 493.092 957.683" stroke="#C0C2B7" stroke-width="0.766418" stroke-linecap="round" stroke-linejoin="round"/>
<path d="M835.198 254.463C870.609 288.333 898.818 327.446 920.205 371.499C920.345 371.76 920.205 372.16 920.205 372.5" stroke="#C0C2B7" stroke-width="0.766418" stroke-linecap="round" stroke-linejoin="round"/>
<path d="M920.225 729.612C904.2 761.702 884.914 791.591 861.346 818.76C852.964 828.423 844.101 837.546 835.198 846.648" stroke="#C0C2B7" stroke-width="0.766418" stroke-linecap="round" stroke-linejoin="round"/>
<path d="M179.995 729.612C195.96 761.742 215.386 791.531 238.873 818.76C247.236 828.443 256.099 837.546 265.021 846.648" stroke="#C0C2B7" stroke-width="0.766418" stroke-linecap="round" stroke-linejoin="round"/>
<path d="M265.021 254.463C230.071 288.674 201.982 327.866 179.995 371.499" stroke="#C0C2B7" stroke-width="0.766418" stroke-linecap="round" stroke-linejoin="round"/>
<path d="M666.146 499.539C657.183 501.08 650.021 507.382 649.141 514.544C648.3 521.406 653.862 529.769 661.144 532.55C668.607 535.411 677.65 532.97 681.991 525.448C687.893 515.204 683.491 503.641 671.128 499.559C669.827 499.139 668.147 500.18 667.146 498.519" stroke="#C0C2B7" stroke-width="0.766418" stroke-linecap="round" stroke-linejoin="round"/>
<path d="M558.112 961.684C552.45 961.103 546.668 962.904 541.106 960.683" stroke="#C0C2B7" stroke-width="0.766418" stroke-linecap="round" stroke-linejoin="round"/>
<path d="M542.106 139.427H559.112" stroke="#C0C2B7" stroke-width="0.766418" stroke-linecap="round" stroke-linejoin="round"/>
<path d="M938.23 415.513C940.231 421.175 942.232 426.857 944.232 432.519" stroke="#C0C2B7" stroke-width="0.766418" stroke-linecap="round" stroke-linejoin="round"/>
<path d="M155.988 669.593C157.989 674.934 159.99 680.256 161.99 685.598" stroke="#C0C2B7" stroke-width="0.766418" stroke-linecap="round" stroke-linejoin="round"/>
<path d="M944.232 669.593C942.232 674.934 940.231 680.256 938.23 685.598" stroke="#C0C2B7" stroke-width="0.766418" stroke-linecap="round" stroke-linejoin="round"/>
<path d="M161.99 415.513C159.99 420.855 157.989 426.177 155.988 431.518" stroke="#C0C2B7" stroke-width="0.766418" stroke-linecap="round" stroke-linejoin="round"/>
<path d="M316.037 212.45C311.915 217.091 305.113 218.592 302.032 224.453" stroke="#C0C2B7" stroke-width="0.766418" stroke-linecap="round" stroke-linejoin="round"/>
<path d="M785.183 212.45C789.844 216.451 794.526 220.452 799.187 224.453" stroke="#C0C2B7" stroke-width="0.766418" stroke-linecap="round" stroke-linejoin="round"/>
<path d="M301.032 876.657C305.694 880.659 310.375 884.66 315.037 888.661" stroke="#C0C2B7" stroke-width="0.766418" stroke-linecap="round" stroke-linejoin="round"/>
<path d="M798.187 878.658C793.845 881.999 789.524 885.32 785.183 888.661" stroke="#C0C2B7" stroke-width="0.766418" stroke-linecap="round" stroke-linejoin="round"/>
<path d="M549.11 407.51C541.307 409.871 534.485 413.412 533.145 422.515C531.704 432.338 537.186 440.001 547.109 442.521C554.751 444.462 562.994 439.681 566.115 431.518C569.616 422.375 565.995 414.293 556.092 409.551C554.211 408.651 552.111 408.191 550.11 407.51" stroke="#C0C2B7" stroke-width="0.766418" stroke-linecap="round" stroke-linejoin="round"/>
<path d="M544.108 398.508C525.182 404.19 518.2 424.096 526.042 437.56C533.724 450.784 546.568 456.446 559.112 451.524C572.176 446.423 580.079 431.918 577.118 418.514C574.457 406.45 561.753 398.508 545.108 398.508" stroke="#C0C2B7" stroke-width="0.766418" stroke-linecap="round" stroke-linejoin="round"/>
<path d="M666.146 488.536C646.54 493.457 637.777 504.061 640.198 520.546C642.079 533.43 651.181 541.032 662.185 543.413C674.189 546.014 687.473 538.952 692.014 527.488C696.355 516.545 695.215 505.581 685.352 496.318C679.87 491.157 673.668 489.996 667.146 488.536" stroke="#C0C2B7" stroke-width="0.766418" stroke-linecap="round" stroke-linejoin="round"/>
<path d="M419.07 497.539C413.788 499.799 409.206 502.78 407.046 508.542C403.625 517.585 408.726 528.808 418.089 531.469C428.592 534.47 437.235 529.809 440.956 517.505C443.397 509.422 434.614 498.899 425.071 497.559C423.431 497.339 421.75 497.519 420.07 497.519" stroke="#C0C2B7" stroke-width="0.766418" stroke-linecap="round" stroke-linejoin="round"/>
<path d="M541.107 497.539C518.28 503.921 502.355 516.785 497.994 541.532C494.193 563.159 501.775 580.665 518.32 593.269C534.785 605.793 554.071 607.733 573.057 598.43C592.223 589.027 601.866 573.262 603.326 551.556C605.227 523.447 577.819 495.178 549.11 497.499C546.789 497.679 544.448 497.519 542.107 497.519" stroke="#C0C2B7" stroke-width="0.766418" stroke-linecap="round" stroke-linejoin="round"/>
<path d="M618.131 628.58C594.844 633.281 590.002 653.327 595.224 666.552C599.705 677.875 615.19 685.998 626.133 683.597C639.017 680.756 648.52 668.672 648.14 655.588C647.74 641.784 638.717 632.201 624.173 629.38C622.512 629.06 620.792 628.92 619.131 628.58" stroke="#C0C2B7" stroke-width="0.766418" stroke-linecap="round" stroke-linejoin="round"/>
<path d="M473.087 633.581C454.101 641.984 449.979 652.687 453.04 666.592C455.661 678.415 463.784 685.998 476.088 687.598C487.931 689.139 498.635 683.397 504.096 672.593C508.578 663.731 505.977 650.427 499.195 642.504C492.353 634.542 483.83 632.701 474.087 633.581" stroke="#C0C2B7" stroke-width="0.766418" stroke-linecap="round" stroke-linejoin="round"/>
<path d="M620.132 638.583C610.629 639.843 604.567 644.985 603.207 654.608C602.186 661.83 607.388 669.192 615.13 672.594C621.612 675.434 630.495 672.774 635.137 666.592C639.178 661.21 639.218 651.467 635.137 646.585C631.475 642.204 627.474 638.343 621.152 638.583" stroke="#C0C2B7" stroke-width="0.766418" stroke-linecap="round" stroke-linejoin="round"/>
<path d="M475.087 643.585C460.583 651.207 456.761 663.171 466.144 672.534C471.726 678.115 478.808 679.376 486.05 676.495C492.552 673.894 498.094 664.211 497.094 658.589C495.834 651.507 488.551 644.625 481.089 643.625C479.448 643.404 477.768 643.585 476.087 643.585" stroke="#C0C2B7" stroke-width="0.766418" stroke-linecap="round" stroke-linejoin="round"/>
<path d="M538.106 0.383301C524.442 1.38361 510.758 2.26389 497.093 3.40424C444.917 7.7256 394.682 20.6296 346.127 39.5755C300.172 57.5011 257.459 81.9888 218.267 111.738C188.958 133.985 162.07 159.213 137.762 187.242C115.395 213.01 95.5691 240.338 77.9036 269.427C54.0362 308.72 36.2507 350.573 22.8866 394.486C4.16078 455.886 -2.00113 518.825 1.17986 582.545C4.28082 644.445 18.0651 704.263 41.9325 761.621C63.9993 814.658 93.8085 862.773 130.82 906.807C168.832 952.001 213.226 989.612 263.181 1020.46C305.514 1046.61 351.128 1066 399.063 1079.74C458.942 1096.91 520.241 1102.99 582.1 1099.43C671.187 1094.31 754.393 1068.86 831.277 1022.84C877.831 994.994 919.664 961.464 956.056 921.511C1001.91 871.195 1037.56 814.278 1062.31 750.638C1082.87 697.761 1095.36 643.004 1098.94 586.546C1101.14 551.916 1099.92 517.205 1095.62 482.494C1090.26 439.2 1080.37 397.227 1065.15 356.535C1046.22 305.979 1020.58 259.124 987.365 216.351C971.66 196.104 955.395 176.398 937.11 158.533C893.116 115.559 843.621 79.8481 788.004 53.74C739.188 30.8328 687.973 14.7078 634.156 7.1054C602.526 2.624 570.896 0.92347 539.086 0.383301" stroke="#C0C2B7" stroke-width="0.766418" stroke-linecap="round" stroke-linejoin="round"/>
</svg>
